<svg width="21" height="21" viewBox="0 0 21 21" fill="none" xmlns="http://www.w3.org/2000/svg">
<path d="M10.9477 20.005C8.21588 20.005 7.89384 19.9906 6.82776 19.944C5.99641 19.9167 5.17583 19.748 4.40133 19.445C3.06131 18.9243 2.00171 17.8658 1.48073 16.5275C1.18901 15.7513 1.03167 14.9312 1.01543 14.1024C0.953247 13.04 0.953247 12.6919 0.953247 9.98504C0.953247 7.2494 0.967683 6.93004 1.01543 5.87105C1.03202 5.04328 1.18936 4.22435 1.48073 3.44923C2.00114 2.10916 3.06247 1.04977 4.40466 0.53062C5.1805 0.238097 6.00083 0.0805696 6.82998 0.0648851C7.8905 0.00500488 8.2392 0.00500488 10.9477 0.00500488C13.7017 0.00500488 14.0182 0.0194205 15.0676 0.0648851C15.8989 0.0807053 16.7214 0.238216 17.4996 0.53062C18.8414 1.05036 19.9025 2.10955 20.4235 3.44923C20.7202 4.23565 20.8784 5.06738 20.8911 5.90764C20.9532 6.96996 20.9532 7.31705 20.9532 10.0227C20.9532 12.7284 20.9377 13.0833 20.8911 14.1334C20.8745 14.9631 20.7168 15.7839 20.4246 16.5608C19.9023 17.9 18.8412 18.9589 17.4996 19.4794C16.7225 19.7701 15.9017 19.9272 15.0721 19.944C14.0115 20.005 13.664 20.005 10.9477 20.005ZM10.9099 1.76038C8.19367 1.76038 7.9116 1.77369 6.85108 1.82137C6.21808 1.82975 5.5912 1.94639 4.99767 2.16624C4.12121 2.50113 3.42768 3.19085 3.08873 4.06466C2.86687 4.6638 2.75004 5.29662 2.74336 5.93537C2.68451 7.00988 2.68451 7.29154 2.68451 9.98504C2.68451 12.6464 2.6945 12.9691 2.74336 14.0369C2.7533 14.6692 2.87007 15.2953 3.08873 15.8888C3.42818 16.762 4.12159 17.4512 4.99767 17.7861C5.5908 18.0074 6.21793 18.1241 6.85108 18.131C7.92604 18.1931 8.20922 18.1931 10.9099 18.1931C13.634 18.1931 13.916 18.1798 14.9677 18.131C15.6011 18.1233 16.2285 18.0066 16.8222 17.7861C17.6934 17.4483 18.3824 16.7607 18.7212 15.891C18.9426 15.2914 19.0594 14.6583 19.0665 14.0192H19.0787C19.1265 12.9591 19.1265 12.6763 19.1265 9.9673C19.1265 7.25828 19.1143 6.97329 19.0665 5.9143C19.0566 5.28273 18.9398 4.65738 18.7212 4.06466C18.3831 3.19371 17.694 2.50477 16.8222 2.16624C16.2286 1.94528 15.6012 1.8286 14.9677 1.82137C13.8938 1.76038 13.6129 1.76038 10.9099 1.76038ZM10.9477 15.107C8.87106 15.1084 6.99813 13.8603 6.2024 11.945C5.40667 10.0296 5.84487 7.82418 7.31264 6.35726C8.78041 4.89034 10.9886 4.45086 12.9074 5.24378C14.8263 6.03671 16.0777 7.90586 16.0782 9.9795C16.0751 12.8084 13.7806 15.1015 10.9477 15.107ZM10.9477 6.6506C9.10777 6.6506 7.61621 8.14001 7.61621 9.97728C7.61621 11.8146 9.10777 13.304 10.9477 13.304C12.7876 13.304 14.2792 11.8146 14.2792 9.97728C14.2749 8.14178 12.7858 6.65487 10.9477 6.6506ZM16.2781 5.85997C15.6178 5.85751 15.0842 5.32169 15.0854 4.66237C15.0866 4.00304 15.6222 3.4692 16.2825 3.4692C16.9428 3.4692 17.4784 4.00303 17.4796 4.66236C17.4799 4.98046 17.3533 5.28558 17.1279 5.5103C16.9024 5.73503 16.5966 5.86085 16.2781 5.85997Z" fill="#2E3A59"/>
</svg>
