<svg width="20" height="20" viewBox="0 0 20 20" fill="none" xmlns="http://www.w3.org/2000/svg">
<path d="M10.9512 18H6.9512V6H10.9512V8C11.8038 6.91525 13.0968 6.26857 14.4762 6.237C16.9568 6.25077 18.9584 8.26938 18.9512 10.75V18H14.9512V11.25C14.7912 10.1326 13.833 9.30358 12.7042 9.306C12.2105 9.32161 11.7444 9.53778 11.4136 9.90462C11.0828 10.2715 10.9158 10.7573 10.9512 11.25V18ZM4.9512 18H0.951202V6H4.9512V18ZM2.9512 4C1.84663 4 0.951202 3.10457 0.951202 2C0.951202 0.89543 1.84663 0 2.9512 0C4.05577 0 4.9512 0.89543 4.9512 2C4.9512 2.53043 4.74049 3.03914 4.36542 3.41421C3.99034 3.78929 3.48164 4 2.9512 4Z" fill="#2E3A59"/>
</svg>
