<svg width="20" height="20" viewBox="0 0 20 20" fill="none" xmlns="http://www.w3.org/2000/svg">
<path d="M18.9462 2.68799C19.8426 2.15208 20.5134 1.30823 20.8332 0.313989C19.9908 0.813791 19.0692 1.16587 18.1082 1.35499C16.7758 -0.0544839 14.6647 -0.397485 12.9546 0.517645C11.2445 1.43277 10.3587 3.37948 10.7922 5.26999C7.3418 5.09676 4.12715 3.4669 1.94819 0.785989C0.811027 2.74741 1.39214 5.25477 3.27619 6.51599C2.5949 6.49409 1.92871 6.30963 1.33319 5.97799C1.33319 5.99599 1.33319 6.01399 1.33319 6.03199C1.33358 8.07514 2.77356 9.83507 4.77619 10.24C4.14425 10.4119 3.48139 10.4372 2.83819 10.314C3.40139 12.0613 5.01174 13.2583 6.84719 13.294C5.32702 14.4871 3.44966 15.1342 1.51719 15.131C1.17466 15.1315 0.832398 15.1118 0.492188 15.072C2.45458 16.333 4.73856 17.0023 7.07119 17C10.3164 17.0223 13.4352 15.7429 15.7299 13.448C18.0246 11.1531 19.3037 8.03424 19.2812 4.78899C19.2812 4.60299 19.2769 4.41799 19.2682 4.23399C20.1086 3.62659 20.834 2.87414 21.4102 2.01199C20.6272 2.35905 19.7967 2.58691 18.9462 2.68799Z" fill="#2E3A59"/>
</svg>
