<?xml version="1.0" standalone="no"?>
<!DOCTYPE svg PUBLIC "-//W3C//DTD SVG 20010904//EN"
 "http://www.w3.org/TR/2001/REC-SVG-20010904/DTD/svg10.dtd">
<svg version="1.0" xmlns="http://www.w3.org/2000/svg"
 width="2000.000000pt" height="1335.000000pt" viewBox="0 0 2000.000000 1335.000000"
 preserveAspectRatio="xMidYMid meet">

<g transform="translate(0.000000,1335.000000) scale(0.100000,-0.100000)"
fill="#000000" stroke="none">
<path d="M0 6675 l0 -6675 3410 0 c3399 0 3409 0 3420 20 6 11 18 20 26 20 8
0 24 5 35 11 16 8 18 13 9 24 -9 11 -17 12 -31 4 -11 -5 -29 -7 -41 -3 -14 4
-18 2 -14 -5 12 -19 -46 -13 -60 7 -18 23 -17 32 1 32 9 0 15 9 15 21 0 14 5
19 14 16 10 -4 12 0 9 14 -4 13 0 19 11 19 14 0 14 3 4 13 -9 11 -19 11 -40 3
-15 -6 -28 -14 -28 -18 0 -4 -4 -8 -10 -8 -5 0 -10 7 -10 15 0 8 -5 15 -11 15
-5 0 -7 5 -4 10 4 6 11 8 16 5 11 -8 53 4 45 12 -10 10 16 33 37 33 16 0 18 3
9 12 -9 9 -15 9 -24 0 -7 -7 -20 -12 -30 -12 -10 0 -30 -7 -43 -16 -16 -11
-25 -12 -25 -5 0 6 6 14 14 17 8 3 17 12 20 21 5 12 1 14 -14 10 -11 -3 -23
-1 -26 4 -3 5 0 9 7 9 10 0 10 3 1 12 -9 9 -15 9 -24 0 -16 -16 -25 -15 -32 5
-4 10 -4 15 -1 11 4 -3 16 3 27 14 14 14 17 23 9 31 -17 17 -13 41 10 72 18
22 20 29 8 36 -8 5 -17 9 -21 9 -5 0 -8 7 -8 16 0 10 -6 14 -15 11 -8 -4 -17
-2 -20 2 -2 5 10 12 28 15 26 6 29 9 16 16 -10 6 -29 6 -48 0 -19 -5 -31 -5
-31 1 0 5 7 9 15 9 8 0 15 5 15 10 0 6 -9 10 -20 10 -11 0 -20 5 -20 11 0 6
-8 8 -19 4 -49 -15 -22 39 32 63 36 15 34 29 -3 34 -25 4 -30 2 -25 -11 5 -14
4 -14 -10 0 -13 13 -15 21 -6 37 15 28 14 29 -11 28 -13 -1 -23 5 -23 12 0 7
-6 17 -14 21 -11 7 -9 10 8 16 27 8 27 25 0 25 -16 0 -19 3 -12 13 18 21 12
49 -9 44 -10 -3 -16 -1 -12 4 3 5 -4 9 -15 9 -12 0 -21 5 -21 10 0 6 7 10 15
10 8 0 15 4 15 10 0 5 -7 7 -15 4 -10 -4 -15 0 -15 11 0 12 -5 15 -17 11 -15
-5 -14 -3 2 9 11 9 19 25 17 36 -3 18 0 20 20 13 20 -6 21 -5 10 9 -8 9 -26
17 -40 19 -23 3 -27 8 -29 35 -1 18 3 35 8 39 16 9 10 26 -7 20 -12 -5 -15 -2
-10 10 3 8 6 18 6 20 0 2 7 4 15 4 8 0 15 8 15 17 0 12 -3 14 -11 6 -6 -6 -19
-9 -29 -6 -15 4 -17 9 -8 33 6 20 6 35 -2 49 -14 27 13 71 43 71 30 0 15 10
-19 12 -37 2 -66 26 -59 49 4 10 -1 21 -11 27 -15 8 -15 10 1 16 10 3 24 1 31
-5 11 -9 14 -8 14 4 0 8 -7 17 -15 21 -21 8 -19 46 3 47 12 0 11 3 -7 10 -15
6 -28 6 -36 -1 -7 -6 -20 -8 -28 -4 -13 5 -14 9 -4 18 6 7 20 15 30 19 9 3 17
11 17 17 0 14 -13 13 -36 -5 -29 -22 -47 -18 -24 5 11 11 23 20 26 20 3 0 12
6 19 14 12 12 12 15 -3 21 -14 7 -13 9 8 14 27 7 41 41 17 41 -9 0 -18 -6 -20
-12 -4 -10 -8 -10 -15 1 -9 12 -13 12 -26 2 -13 -11 -16 -11 -16 3 0 22 -16
20 -42 -4 -26 -24 -40 -26 -32 -5 4 8 10 15 15 15 5 0 18 9 30 21 l21 21 -33
-6 c-32 -7 -33 -6 -15 9 11 8 26 15 34 15 13 0 12 3 -1 18 -10 10 -17 26 -17
35 0 9 -4 19 -10 22 -16 10 -12 23 10 30 21 7 28 25 9 25 -6 0 -24 -9 -41 -21
-16 -12 -32 -18 -35 -15 -11 10 -12 55 -2 61 5 4 9 11 9 16 0 6 -5 7 -12 3 -7
-4 -8 -3 -4 5 4 6 11 9 16 6 5 -3 20 1 33 10 13 8 26 13 28 10 3 -2 10 5 17
15 10 17 10 20 -3 20 -8 0 -15 -4 -15 -9 0 -5 -12 -11 -27 -14 -16 -3 -38 -8
-49 -12 -16 -5 -23 -2 -27 15 -4 16 -1 24 14 27 10 3 19 14 19 24 0 23 -13 24
-30 4 -7 -9 -19 -14 -27 -11 -7 3 -13 2 -13 -2 0 -4 -12 -8 -28 -9 l-27 -1 30
15 c17 8 45 31 63 51 17 20 32 30 32 24 0 -16 27 -4 34 15 4 9 5 18 2 20 -5 5
-48 -18 -57 -31 -4 -5 -14 -6 -22 -3 -8 3 -19 1 -25 -5 -6 -6 -12 -6 -16 1 -9
14 2 33 15 26 5 -4 12 2 16 12 3 10 13 27 22 37 15 18 15 19 -14 12 -16 -4
-38 -9 -48 -12 -11 -4 -17 0 -17 12 0 16 -1 16 -20 -1 -11 -10 -23 -15 -26
-12 -4 3 6 17 20 30 25 24 33 47 19 60 -3 4 -12 2 -20 -5 -10 -8 -17 -8 -25 0
-9 9 -9 12 0 12 19 0 92 65 92 82 0 4 -8 8 -17 8 -14 0 -15 -2 -5 -9 10 -6 7
-12 -12 -24 -30 -20 -43 -21 -49 -4 -4 9 -7 9 -18 0 -16 -15 -29 -17 -29 -3 0
5 18 21 39 36 24 15 38 31 35 39 -4 9 4 15 23 17 16 2 29 10 31 20 3 13 -6 11
-50 -11 -29 -15 -66 -31 -83 -34 l-30 -7 24 20 c13 11 18 20 12 20 -6 0 -11 5
-11 10 0 6 8 10 18 10 9 0 23 9 30 20 15 25 0 27 -42 5 -39 -21 -44 -11 -10
19 l29 24 -23 41 c-22 38 -21 46 2 42 9 -2 26 18 26 32 0 4 -7 7 -15 7 -8 0
-15 -5 -15 -11 0 -5 -4 -8 -10 -4 -5 3 -2 14 8 25 44 48 44 50 21 58 -20 8
-20 9 -5 15 16 7 16 9 -5 26 -20 16 -21 21 -10 34 7 9 11 28 10 44 -4 51 1 63
26 73 16 6 23 14 19 25 -5 11 -2 14 10 9 12 -5 15 -2 10 10 -3 9 -1 16 5 16 6
0 11 5 11 10 0 14 -27 13 -32 -2 -2 -6 -10 -8 -17 -4 -18 11 37 60 72 62 31 2
34 -3 10 -22 -17 -13 -17 -14 2 -11 11 1 27 6 35 11 8 4 4 -2 -9 -13 -34 -31
-20 -35 28 -10 23 12 45 19 48 15 4 -3 1 -6 -6 -6 -7 0 -9 -5 -6 -11 4 -6 -2
-13 -14 -16 -12 -3 -21 -9 -21 -12 0 -12 75 -32 78 -21 5 13 32 13 32 0 0 -5
-8 -14 -17 -20 -17 -11 -17 -11 0 -6 15 5 17 2 11 -17 -7 -22 -6 -22 15 -3 11
11 24 16 29 12 4 -4 -4 -16 -17 -27 -34 -28 -20 -34 22 -9 23 14 38 17 42 10
3 -5 0 -10 -7 -10 -16 -1 -68 -46 -68 -60 0 -5 17 -10 38 -11 20 0 31 -3 25
-6 -7 -2 -13 -10 -13 -16 0 -7 -15 -22 -33 -34 -32 -23 -22 -32 15 -12 24 13
40 1 15 -12 -9 -6 -17 -14 -17 -19 0 -15 40 -22 56 -9 20 17 28 5 14 -21 -11
-20 -10 -21 10 -15 28 9 23 -13 -6 -29 -40 -23 -48 -66 -12 -66 21 0 21 0 2
-15 -17 -13 -17 -14 -1 -15 9 0 17 -7 17 -15 0 -8 3 -14 8 -14 4 1 10 0 15 -1
12 -4 26 -7 37 -9 16 -2 12 -31 -5 -37 -17 -7 -21 -44 -4 -44 7 0 9 -9 5 -24
-6 -25 17 -45 29 -26 4 6 16 10 28 10 17 0 19 -2 8 -9 -12 -8 -12 -12 2 -25
17 -17 37 -21 37 -8 0 4 -5 13 -10 18 -7 7 -1 9 20 6 l31 -4 -24 -27 c-13 -14
-27 -34 -30 -43 -8 -22 11 -35 19 -13 4 9 13 14 21 11 7 -3 16 1 19 9 8 19 20
19 28 0 3 -10 -1 -18 -12 -22 -9 -4 -27 -17 -39 -30 -12 -13 -27 -23 -33 -23
-5 0 -10 -5 -10 -11 0 -5 4 -8 8 -5 4 3 27 7 50 10 23 3 56 15 72 26 17 12 36
20 43 17 6 -2 -7 -16 -31 -30 -23 -15 -42 -30 -42 -33 0 -22 23 -41 51 -42 45
-1 56 -16 27 -36 l-23 -17 26 6 c28 7 49 -9 25 -18 -9 -4 -13 -14 -9 -29 3
-17 2 -19 -5 -9 -10 14 -52 7 -52 -10 0 -6 4 -7 10 -4 6 3 10 1 10 -4 0 -6 -5
-11 -10 -11 -6 0 -2 -10 10 -22 l20 -22 20 22 c24 26 40 28 40 7 0 -9 -12 -21
-27 -27 -25 -10 -26 -12 -8 -16 23 -5 45 -22 28 -22 -6 0 -14 -8 -17 -17 -6
-15 -5 -16 11 -1 10 9 28 19 41 22 12 4 22 15 22 24 0 14 2 15 10 2 6 -9 5
-17 -2 -21 -6 -4 -8 -15 -4 -24 5 -14 2 -16 -15 -12 -15 4 -19 2 -15 -8 3 -10
-6 -16 -29 -21 -37 -7 -45 -18 -19 -28 22 -8 24 -8 24 7 0 7 17 13 46 14 l46
2 -21 -20 c-11 -11 -21 -25 -20 -32 0 -9 2 -9 6 1 6 15 36 16 31 0 -4 -10 -15
-18 -47 -35 -1 -1 4 -12 13 -25 13 -18 16 -19 16 -5 0 20 16 23 24 5 3 -9 12
-4 26 14 20 26 59 41 45 18 -3 -5 -1 -10 4 -10 6 0 11 6 11 13 0 6 6 3 12 -7
8 -15 7 -22 -6 -31 -9 -7 -16 -17 -16 -24 0 -6 -5 -11 -11 -11 -6 0 -17 -7
-26 -16 -14 -14 -14 -16 3 -29 18 -13 18 -14 -9 -24 -16 -6 -36 -11 -45 -11
-9 -1 -30 -12 -47 -26 l-30 -26 29 7 c16 3 48 15 70 26 41 20 64 17 33 -5 -26
-20 -21 -24 28 -24 25 0 45 4 45 10 0 6 -9 8 -20 5 -30 -8 -33 8 -4 21 22 11
26 9 33 -11 8 -20 10 -21 16 -3 5 11 3 21 -6 27 -12 8 -12 11 1 19 19 13 30
13 30 0 0 -5 -5 -10 -11 -10 -7 0 -5 -10 5 -25 21 -32 21 -30 -16 -46 -17 -7
-49 -31 -69 -53 -35 -37 -41 -56 -18 -56 6 0 7 5 4 10 -3 6 0 10 9 10 8 0 21
3 30 6 9 4 16 1 16 -6 0 -6 -9 -14 -20 -17 -25 -7 -26 -23 -1 -23 10 0 21 7
25 15 3 9 12 12 21 9 10 -4 22 1 30 12 7 11 16 16 20 12 11 -10 -28 -57 -47
-58 -10 0 -18 -4 -18 -10 0 -5 -6 -10 -14 -10 -12 0 -26 -20 -26 -37 0 -3 14
-3 30 1 16 3 30 1 30 -4 0 -15 38 -22 60 -10 24 13 42 4 20 -10 -8 -5 -11 -12
-7 -17 5 -4 11 -2 15 4 10 15 72 27 72 14 0 -5 -5 -13 -10 -16 -6 -3 -10 -1
-10 6 0 6 -8 2 -18 -9 -24 -30 -56 -32 -60 -6 -3 19 -6 20 -28 10 -13 -6 -22
-17 -19 -23 3 -8 -5 -13 -20 -13 -17 0 -23 -4 -19 -14 7 -18 34 -9 53 17 10
14 16 16 25 7 8 -8 4 -16 -17 -32 -32 -23 -35 -38 -6 -38 19 0 19 -1 4 -16
-12 -13 -19 -14 -30 -4 -12 10 -15 10 -15 -3 0 -8 -7 -20 -15 -27 -19 -16 -19
-26 0 -34 8 -3 14 0 12 7 -1 7 5 12 13 12 8 0 14 -6 13 -12 -4 -16 9 -16 41
-2 14 7 36 8 53 4 l28 -8 -25 -7 c-25 -8 -24 -8 5 -10 l30 -2 -29 -8 c-41 -13
-50 -32 -23 -47 20 -11 20 -12 3 -13 -20 0 -20 0 0 -15 13 -10 15 -17 8 -22
-6 -5 -13 -18 -16 -29 -5 -18 0 -23 23 -28 41 -8 36 -31 -11 -62 -23 -15 -37
-30 -32 -33 5 -3 11 -14 15 -23 4 -11 12 -15 22 -12 9 4 16 0 16 -7 1 -8 3
-21 4 -29 1 -8 3 -23 4 -33 1 -14 5 -16 20 -7 30 15 56 13 42 -3 -6 -8 -9 -16
-6 -19 3 -2 -10 -20 -28 -40 -18 -20 -31 -40 -30 -45 4 -12 52 -5 71 10 9 7
18 4 32 -8 15 -14 23 -15 33 -6 21 17 29 0 12 -26 -15 -22 -14 -24 6 -32 20
-7 20 -8 5 -14 -22 -9 -36 -1 -36 19 0 20 -28 17 -41 -5 -7 -10 -20 -16 -29
-14 -10 3 -20 -3 -24 -12 -5 -14 -2 -16 19 -13 14 3 25 4 25 3 0 -1 7 -19 15
-39 l16 -37 -26 17 c-30 20 -34 3 -5 -26 11 -11 15 -22 9 -26 -15 -9 10 -34
28 -27 11 4 14 0 13 -18 -1 -13 -1 -28 0 -34 2 -5 4 -16 4 -24 1 -15 16 -26
58 -41 25 -8 27 -12 18 -36 l-11 -27 46 5 c49 6 63 -2 41 -25 -9 -9 -11 -19
-5 -28 6 -10 9 -10 9 -1 0 6 9 12 19 12 11 0 23 4 26 10 10 16 47 12 60 -7 8
-11 28 -17 59 -18 26 -1 42 1 36 5 -7 4 0 9 17 13 15 3 44 17 64 30 21 14 47
28 60 32 13 4 30 14 38 23 13 13 16 12 21 -4 6 -17 8 -17 19 4 7 14 19 21 33
19 14 -1 23 4 23 13 1 8 6 14 13 12 7 -1 23 9 36 23 13 14 29 25 36 25 7 0 10
7 6 16 -3 9 -6 23 -6 32 -1 15 -2 15 -14 -1 -14 -19 -33 -22 -101 -18 -39 2
-40 2 -20 19 50 43 49 49 -5 44 -50 -5 -54 -2 -49 34 0 4 -5 10 -12 15 -10 6
-10 10 0 23 11 13 9 14 -19 6 -49 -14 -150 -10 -150 6 0 8 4 14 9 14 5 0 12 7
15 16 5 13 2 15 -15 11 -17 -5 -20 -2 -16 14 4 16 0 19 -24 19 -16 0 -29 -4
-29 -10 0 -5 -11 -10 -25 -10 -14 0 -25 5 -25 10 0 6 9 10 20 10 11 0 20 7 20
15 0 9 9 19 20 23 17 6 11 11 -35 31 -30 13 -55 30 -55 37 0 8 6 11 15 8 8 -4
15 -1 15 5 0 6 -11 16 -25 21 -26 10 -35 39 -12 41 6 0 -4 7 -23 16 -38 17
-107 73 -89 73 9 0 9 4 0 14 -8 10 -9 16 -1 21 17 10 11 23 -12 27 -22 3 -22
3 -2 22 17 18 18 19 1 13 -22 -8 -57 8 -57 27 0 8 9 16 20 19 11 3 20 11 20
19 0 9 -14 13 -49 11 -38 -1 -54 4 -67 18 -13 15 -15 22 -6 31 19 19 14 25
-18 20 -29 -4 -30 -3 -30 36 0 23 -5 42 -12 44 -9 3 -9 6 -1 11 6 4 19 0 27
-9 9 -8 16 -11 16 -5 0 5 -5 13 -11 17 -8 4 -4 13 12 25 21 16 22 19 7 24 -15
6 -15 9 -3 21 15 16 49 19 40 4 -3 -5 3 -10 14 -10 12 0 21 5 21 10 0 6 5 10
10 10 20 0 9 -20 -15 -26 -31 -8 -50 -29 -35 -39 6 -4 17 -1 25 5 8 6 19 9 25
5 5 -3 10 -1 10 4 0 6 11 11 25 11 19 0 25 5 25 21 0 15 -5 19 -15 15 -8 -3
-15 -1 -15 4 0 6 16 8 39 4 23 -4 47 -1 61 6 26 14 40 1 40 -37 0 -21 4 -22
40 -18 24 3 40 1 40 -5 0 -5 11 -10 25 -10 14 0 25 5 25 10 0 6 -4 10 -10 10
-5 0 -10 4 -10 10 0 5 7 7 15 4 13 -5 13 -1 0 36 -8 23 -12 47 -8 53 3 5 2 7
-3 4 -6 -3 -16 9 -23 26 -17 40 -51 78 -63 71 -4 -3 -15 2 -24 11 -13 12 -14
19 -5 28 14 14 15 47 1 47 -5 0 -10 9 -10 20 0 18 -17 26 -44 21 -5 -1 -4 4 3
13 7 8 8 17 3 20 -5 3 -7 17 -4 31 3 20 1 24 -11 19 -12 -4 -14 -1 -10 15 8
30 -5 71 -22 71 -8 0 -15 9 -15 20 0 11 -6 20 -14 20 -8 0 -17 15 -20 34 -4
19 -13 39 -21 46 -8 7 -15 17 -15 22 0 5 -6 16 -14 24 -8 7 -22 35 -32 61 -9
27 -23 55 -31 64 -7 8 -13 21 -13 27 0 17 -59 123 -81 148 -10 11 -19 29 -19
40 0 10 -17 44 -37 74 -21 30 -39 64 -40 75 -2 11 -10 23 -18 28 -8 4 -15 18
-15 31 0 13 -7 29 -15 36 -8 7 -15 18 -15 25 0 7 -18 48 -40 91 -22 43 -40 86
-40 95 0 9 -8 27 -18 40 -10 13 -28 44 -39 69 -48 103 -54 116 -63 130 -11 18
-75 153 -75 160 -1 15 -79 164 -110 209 -19 29 -35 57 -35 63 0 5 -11 34 -25
64 -14 30 -25 61 -25 70 0 9 -5 12 -11 8 -8 -4 -10 -27 -6 -65 3 -33 1 -59 -3
-59 -5 0 -20 15 -34 33 -22 27 -28 29 -36 17 -5 -8 -10 -32 -10 -53 0 -27 -5
-40 -17 -44 -23 -9 -37 -22 -52 -52 -12 -21 -11 -22 10 -16 17 6 21 4 16 -8
-4 -11 1 -17 16 -19 12 -2 23 -12 25 -23 3 -11 1 -17 -3 -13 -4 3 -16 -3 -26
-13 -26 -26 -51 -21 -60 11 l-7 25 -2 -25 c-2 -22 -3 -21 -13 10 -12 40 -21
19 -15 -34 3 -29 1 -32 -19 -28 -13 2 -23 12 -23 21 0 12 -5 10 -19 -8 -10
-14 -17 -31 -14 -38 8 -21 -18 -15 -40 10 l-19 22 7 -25 c5 -14 8 -37 7 -53
-1 -15 2 -27 8 -27 14 0 12 -27 -3 -33 -9 -4 -8 -8 3 -16 8 -6 11 -11 5 -12
-13 -2 -22 -4 -62 -14 -18 -4 -33 -11 -33 -16 0 -5 -6 -9 -12 -9 -7 0 -24 -16
-38 -34 -20 -27 -28 -32 -39 -23 -8 7 -22 11 -31 9 -13 -2 -16 5 -16 35 1 21
5 41 10 44 4 4 2 23 -5 43 -11 29 -11 41 -1 56 7 11 12 36 12 55 0 25 4 34 12
29 7 -5 8 -3 3 7 -13 20 -7 66 15 112 11 22 20 48 20 57 0 9 16 47 35 86 19
38 33 75 30 82 -3 8 0 10 6 6 17 -10 0 39 -20 55 -15 13 -15 13 2 8 10 -4 17
-1 18 6 1 7 4 1 8 -12 4 -15 15 -25 28 -26 17 -1 22 5 25 32 2 19 0 36 -4 39
-4 3 -8 16 -8 30 0 14 -4 22 -10 19 -6 -3 -10 -1 -10 4 0 6 5 11 10 11 6 0 10
9 10 21 0 13 -4 18 -12 13 -8 -5 -9 -2 -5 10 4 10 7 21 7 24 0 4 5 0 10 -8 17
-26 12 50 -7 99 -12 32 -14 46 -5 49 11 3 5 62 -8 72 -8 6 0 90 9 90 4 0 5
-19 4 -43 -2 -30 -1 -36 5 -22 18 41 22 85 8 85 -8 0 -11 10 -8 31 3 21 7 27
13 18 14 -23 20 -3 9 26 -7 20 -8 31 0 39 7 7 10 5 10 -7 0 -9 4 -17 10 -17 5
0 7 6 4 14 -8 22 26 88 42 82 9 -4 14 2 14 18 0 26 39 69 41 45 1 -8 4 0 8 16
3 17 12 30 19 30 6 0 12 3 12 7 0 4 14 22 30 40 17 18 30 36 30 41 0 5 7 6 16
3 8 -3 12 -2 9 4 -3 6 -1 10 6 10 7 0 9 3 6 6 -4 4 10 20 31 36 20 16 57 49
82 72 25 23 68 59 95 80 28 20 79 63 114 94 35 31 68 56 73 54 4 -1 7 2 6 6
-4 11 50 64 80 79 13 7 33 13 43 13 23 0 24 7 5 26 -19 18 -30 18 -22 -2 3 -9
2 -12 -5 -9 -17 11 1 47 47 93 27 27 48 59 55 85 27 100 23 97 103 96 88 -1
248 -39 313 -74 26 -14 75 -44 108 -66 33 -21 67 -42 75 -46 8 -4 20 -11 25
-15 36 -28 106 -78 110 -78 2 0 47 -28 98 -62 114 -76 126 -84 204 -123 34
-18 69 -38 78 -45 8 -7 18 -10 21 -8 5 5 104 -49 130 -70 19 -17 113 -44 125
-36 8 4 9 3 5 -4 -6 -11 -2 -13 19 -12 3 1 13 -6 21 -15 9 -8 33 -15 54 -15
22 0 45 -6 52 -13 6 -8 23 -12 37 -9 21 3 23 1 11 -7 -11 -8 -5 -9 25 -6 31 4
36 3 20 -5 -17 -8 -15 -9 10 -5 22 4 37 0 51 -13 19 -18 45 -27 109 -37 17 -2
61 -13 99 -24 38 -10 76 -17 84 -13 11 4 13 2 7 -8 -6 -10 -4 -12 8 -7 10 4
28 2 42 -3 14 -5 53 -12 88 -15 34 -4 79 -10 100 -15 20 -4 59 -7 86 -6 28 1
44 -2 38 -6 -7 -4 8 -7 33 -6 25 0 82 -3 128 -7 140 -13 291 18 375 78 19 13
46 56 78 123 52 109 63 124 73 98 10 -27 21 -6 18 34 -2 30 0 34 8 20 6 -10
18 -18 26 -18 8 0 20 -11 26 -25 6 -14 14 -25 18 -25 4 0 11 -17 15 -37 10
-55 24 -76 45 -70 12 3 29 -6 48 -27 16 -17 43 -42 60 -56 17 -14 31 -31 32
-37 0 -7 7 -13 15 -13 8 0 15 -7 15 -15 0 -8 5 -15 11 -15 20 0 -2 58 -37 96
-19 21 -34 44 -34 51 0 6 -18 31 -40 54 -22 23 -40 46 -40 51 0 4 -4 8 -10 8
-5 0 -10 6 -10 14 0 8 -7 16 -15 20 -8 3 -12 11 -9 19 3 8 -6 18 -20 25 -16 7
-24 17 -20 26 4 10 -6 21 -29 33 -19 10 -56 43 -81 73 -26 30 -54 54 -62 52
-8 -2 -14 5 -14 18 0 13 -7 20 -20 20 -11 0 -20 7 -20 15 0 9 -8 19 -17 22
-10 4 -29 18 -43 32 -22 23 -25 33 -22 79 2 28 8 52 14 52 5 0 6 4 3 10 -5 9
15 92 36 147 8 22 8 22 100 -17 50 -22 121 -48 158 -59 36 -11 104 -35 151
-55 46 -20 90 -36 97 -36 7 0 13 -3 13 -7 0 -5 26 -21 57 -38 60 -31 183 -145
243 -225 19 -25 41 -49 50 -54 33 -20 154 -144 197 -201 24 -33 51 -68 59 -78
8 -9 14 -21 14 -25 0 -4 14 -18 31 -32 47 -37 73 -63 86 -85 6 -11 41 -67 76
-125 83 -137 184 -360 241 -530 61 -186 81 -284 121 -605 4 -27 15 -66 25 -85
30 -56 75 -152 90 -190 7 -19 19 -42 27 -51 7 -8 13 -19 13 -24 0 -10 92 -197
100 -205 3 -3 12 -25 19 -50 7 -25 21 -63 31 -85 10 -22 24 -58 31 -80 7 -22
20 -64 31 -93 10 -29 18 -61 18 -72 0 -10 4 -20 10 -22 5 -1 14 -23 19 -48 5
-25 17 -65 27 -90 9 -25 20 -79 23 -120 6 -71 7 -75 31 -78 28 -4 80 -49 80
-68 0 -7 -6 -19 -14 -26 -7 -8 -17 -24 -21 -37 -6 -21 -5 -23 22 -17 26 6 30
2 56 -45 l28 -52 -28 -39 c-38 -55 -98 -106 -198 -167 -90 -56 -175 -80 -162
-48 3 9 -1 30 -10 47 -8 17 -13 43 -10 57 5 25 -17 82 -37 95 -6 4 -9 28 -8
54 1 27 -4 57 -11 68 -25 39 -41 133 -29 161 15 33 15 35 -3 35 -21 0 -48 101
-40 150 5 33 3 40 -14 50 -14 7 -21 21 -21 39 0 16 -6 41 -14 56 -9 17 -12 35
-7 49 10 25 -3 64 -26 81 -8 6 -16 20 -17 31 -4 36 -19 99 -26 109 -8 11 -28
91 -35 140 -2 17 -13 57 -23 90 -10 33 -17 66 -14 73 2 7 -5 12 -19 12 -22 0
-22 1 -4 13 12 10 16 22 13 40 -3 15 -1 27 5 27 10 0 6 53 -12 153 -9 54 -18
68 -31 47 -5 -8 -14 -15 -20 -15 -11 0 -12 -8 -4 -29 8 -20 1 -59 -11 -62 -5
-2 -18 8 -29 22 -15 22 -16 28 -5 35 10 6 7 9 -11 9 -16 0 -21 3 -12 8 9 6 7
14 -8 30 -12 12 -18 27 -15 32 3 6 2 10 -3 10 -5 0 -12 18 -16 40 -4 29 -11
40 -24 40 -15 0 -17 -7 -14 -41 3 -32 1 -40 -8 -34 -8 5 -11 4 -7 -3 4 -5 16
-8 26 -5 23 6 38 -15 17 -23 -24 -9 -19 -24 9 -24 22 0 24 -3 19 -28 -4 -19
-1 -32 10 -41 8 -7 18 -29 22 -50 7 -39 29 -71 51 -71 15 0 17 16 3 25 -12 7
-14 35 -2 35 4 0 13 -12 20 -28 27 -55 27 -55 -6 -47 -37 8 -41 -3 -18 -47 8
-16 18 -49 22 -75 3 -27 10 -53 15 -59 15 -18 23 -104 11 -104 -6 0 -14 16
-18 35 -3 19 -9 35 -13 35 -4 0 -12 20 -19 44 -7 27 -21 49 -37 60 -20 13 -25
25 -25 55 0 24 -5 41 -14 44 -8 3 -12 15 -9 29 5 24 -35 78 -57 78 -16 0 -12
-18 7 -29 14 -8 15 -12 4 -25 -11 -14 -11 -16 4 -16 10 0 15 -3 12 -7 -4 -3
-2 -12 4 -20 9 -9 8 -13 0 -13 -16 0 -14 -19 4 -36 33 -34 12 -91 -48 -127
-24 -16 -26 -20 -16 -40 6 -12 26 -38 45 -57 41 -43 104 -148 104 -172 0 -10
5 -18 10 -18 6 0 10 -5 10 -11 0 -6 6 -25 14 -42 8 -18 17 -41 21 -52 6 -19 7
-19 20 -2 13 18 14 18 25 -2 6 -12 8 -26 5 -31 -3 -6 -2 -10 2 -10 8 0 10 -15
15 -107 1 -16 0 -35 -3 -43 -2 -9 4 -16 19 -18 12 -2 20 -8 17 -13 -3 -5 6
-29 21 -55 17 -28 27 -60 27 -85 0 -22 4 -42 8 -45 5 -3 9 -23 9 -44 0 -47 18
-90 38 -90 10 0 13 -7 9 -22 -4 -12 -2 -27 2 -32 9 -12 22 -69 23 -103 0 -13
4 -23 9 -23 5 0 9 -8 9 -19 0 -10 6 -24 14 -30 15 -12 27 -57 18 -66 -3 -3 -6
-16 -8 -29 -2 -17 2 -23 10 -20 17 7 28 -21 20 -51 -4 -16 1 -33 15 -51 11
-14 19 -30 16 -34 -3 -4 2 -10 10 -14 10 -3 15 -19 15 -45 0 -22 5 -43 11 -47
6 -3 9 -17 6 -30 -2 -13 -1 -21 3 -19 10 6 22 -77 14 -98 -4 -12 1 -18 20 -23
25 -6 38 -34 16 -34 -17 0 -11 -46 8 -63 13 -12 17 -26 14 -47 -3 -24 -1 -29
11 -24 8 3 18 0 22 -6 4 -7 -2 -14 -14 -17 -25 -6 -27 -21 -4 -38 15 -11 15
-15 4 -29 -7 -9 -22 -16 -32 -16 -13 0 -19 -7 -19 -23 0 -35 -27 -84 -49 -90
-11 -2 -21 -15 -23 -28 -3 -21 -8 -24 -37 -21 -20 2 -37 -2 -43 -10 -6 -9 -8
-8 -6 7 2 14 -3 21 -19 23 -13 2 -23 8 -23 13 0 6 -20 9 -47 8 -65 -4 -67 16
-4 43 28 11 51 24 51 28 0 5 15 14 33 21 l32 13 -28 3 c-24 4 -25 6 -12 19 17
17 20 44 6 44 -5 0 -16 -7 -25 -15 -18 -18 -47 -20 -43 -2 1 8 -11 12 -38 12
-37 0 -40 2 -37 25 1 14 10 31 20 39 12 9 14 15 5 18 -21 8 -14 25 7 18 21 -7
29 10 8 18 -7 2 -9 8 -5 13 4 4 17 3 27 -4 22 -14 50 -16 50 -4 0 13 -80 31
-80 18 -1 -6 -9 -1 -20 12 -14 16 -18 32 -13 53 4 24 1 30 -18 38 -14 5 -25 5
-27 0 -8 -20 -32 -8 -32 16 0 16 -6 25 -15 25 -22 0 -18 18 5 25 32 10 24 28
-10 21 -17 -3 -30 -1 -30 4 0 6 6 10 14 10 20 0 48 48 41 70 -4 12 -2 20 5 20
6 0 18 7 26 15 14 13 13 15 -11 15 -15 0 -24 4 -20 10 3 6 15 10 26 10 11 0
17 5 14 10 -4 6 -28 8 -59 4 -64 -8 -83 9 -31 26 39 13 46 29 15 37 -23 6 -26
18 -7 27 6 4 -3 4 -20 1 -18 -2 -33 -1 -33 4 0 4 -10 13 -22 19 -22 10 -21 11
11 11 27 1 31 4 22 15 -9 11 -4 17 29 30 22 9 47 16 56 16 8 0 22 7 30 15 13
13 12 14 -13 10 -78 -12 -123 -14 -128 -5 -4 6 1 13 11 17 15 5 14 8 -7 16
l-24 10 23 4 c12 3 22 11 22 19 0 8 7 14 15 14 8 0 15 -6 15 -12 0 -9 3 -8 9
2 16 23 3 29 -48 23 l-49 -5 -4 38 c-3 22 -1 41 4 42 4 2 8 10 8 17 0 7 6 16
13 18 6 3 2 6 -10 6 -24 1 -27 13 -13 46 7 17 9 17 9 3 1 -27 26 -11 27 17 2
27 1 27 -68 16 -36 -6 -48 -5 -48 5 0 7 -6 14 -12 17 -9 3 -5 13 11 31 19 20
22 29 13 38 -9 9 -12 8 -12 -5 0 -10 -8 -17 -17 -17 -15 0 -15 2 -4 9 12 8 12
13 3 24 -13 15 -7 43 15 65 18 19 18 48 -1 33 -11 -9 -17 -6 -31 15 -16 25
-16 26 3 20 20 -7 52 1 52 13 0 4 -15 5 -34 3 -27 -3 -34 0 -39 17 -3 12 -12
21 -21 21 -19 0 -21 -11 -5 -27 6 -6 11 -31 11 -56 1 -28 5 -44 12 -41 14 5
19 -53 6 -76 -7 -13 -6 -20 5 -23 10 -4 13 -18 9 -53 -3 -32 1 -55 11 -70 8
-13 12 -30 9 -38 -4 -10 -1 -16 8 -16 11 0 15 -18 16 -72 1 -40 6 -94 10 -120
5 -26 5 -51 0 -56 -9 -9 12 -62 25 -62 11 0 8 -35 -5 -48 -9 -9 -9 -12 0 -12
8 0 12 -18 12 -53 0 -29 5 -58 11 -64 6 -6 12 -37 13 -70 1 -42 5 -57 14 -55
9 2 12 -4 7 -17 -4 -13 0 -23 12 -29 14 -9 15 -12 4 -26 -12 -14 -11 -19 5
-37 15 -17 16 -23 6 -40 -7 -11 -9 -25 -5 -32 4 -7 6 -20 5 -29 -2 -10 3 -18
10 -18 16 0 18 -81 3 -92 -5 -4 0 -8 13 -8 24 0 30 -15 10 -23 -10 -4 -10 -7
-1 -14 9 -7 9 -14 -1 -33 -10 -21 -10 -29 3 -49 20 -32 22 -48 5 -62 -11 -9
-11 -13 2 -26 10 -11 13 -26 9 -47 -5 -25 -4 -28 5 -13 18 29 31 9 15 -23 -14
-27 -13 -29 5 -35 28 -9 35 -48 15 -78 -12 -19 -13 -26 -3 -29 17 -6 -16 -113
-37 -122 -8 -3 -15 -14 -15 -24 0 -10 -5 -23 -12 -30 -9 -9 952 -12 4325 -12
l4337 0 0 6675 0 6675 -10000 0 -10000 0 0 -6675z m10490 1795 c-9 -5 -6 -10
10 -15 12 -4 25 -3 29 3 10 16 49 24 57 11 5 -9 2 -10 -10 -6 -14 5 -15 3 -6
-12 7 -14 6 -21 -2 -23 -15 -5 -3 -38 14 -38 9 0 9 3 -2 10 -8 5 -11 12 -7 17
5 4 12 1 16 -6 7 -10 10 -10 16 -1 4 6 3 16 -3 22 -13 13 12 43 28 33 6 -4 7
1 4 12 -5 17 -5 17 6 0 6 -9 15 -15 21 -12 5 4 9 -6 9 -22 0 -22 -2 -25 -10
-13 -8 12 -10 12 -11 -5 0 -19 -1 -18 -11 3 -11 22 -28 30 -28 12 0 -5 5 -10
10 -10 6 0 10 -6 10 -12 0 -16 -47 -39 -64 -32 -8 3 -16 -2 -20 -11 -5 -15 -8
-15 -21 -1 -8 8 -15 21 -16 28 0 9 -2 10 -5 1 -3 -7 -1 -21 5 -31 8 -15 7 -21
-4 -25 -10 -4 -12 -1 -9 11 5 15 4 15 -9 0 -8 -10 -22 -18 -31 -18 -9 0 -16
-5 -16 -11 0 -5 -5 -7 -10 -4 -6 4 -8 11 -5 16 4 5 1 9 -4 9 -6 0 -11 -6 -11
-14 0 -8 -9 -18 -20 -21 -11 -3 -20 -11 -20 -17 0 -7 -5 -6 -14 2 -11 8 -12
18 -6 35 6 15 6 27 0 30 -6 4 -10 -2 -10 -12 0 -13 -8 -19 -26 -21 -15 -1 -33
-7 -40 -13 -7 -6 -18 -8 -24 -4 -5 3 -13 -1 -17 -10 -3 -10 0 -21 8 -26 9 -6
-1 -8 -31 -7 -30 0 -37 2 -20 6 l25 5 -23 6 c-30 8 -30 24 0 31 16 4 19 8 10
14 -23 14 -62 -2 -62 -26 0 -12 -3 -19 -6 -15 -13 13 6 57 25 57 22 0 34 33
18 49 -6 6 -8 11 -3 11 11 0 36 -27 36 -40 0 -18 27 -40 48 -40 15 0 19 5 15
20 -3 11 -12 20 -20 20 -13 0 -13 -3 -3 -15 7 -9 8 -15 2 -15 -19 0 -22 31 -4
37 9 4 23 14 29 22 11 14 14 14 22 1 5 -8 7 -18 5 -22 -7 -10 -1 -10 30 2 16
6 26 17 26 30 0 11 5 20 10 20 6 0 10 -10 10 -22 0 -12 3 -18 7 -15 3 4 6 20
5 37 0 16 4 32 9 35 5 4 9 2 9 -4 0 -15 53 -6 64 12 6 9 14 13 19 10 5 -3 4
-9 -3 -13z m244 -22 c-10 -13 -21 -25 -23 -28 -2 -3 0 5 3 18 4 12 3 22 -3 22
-5 0 -12 -10 -14 -22 -4 -20 -4 -19 -6 5 -1 24 2 27 31 27 l31 0 -19 -22z
m-2417 -1 c19 -1 23 -34 4 -34 -18 0 -51 25 -51 40 0 5 8 6 18 2 9 -4 22 -8
29 -8z m2503 3 c0 -5 -4 -10 -10 -10 -5 0 -10 5 -10 10 0 6 5 10 10 10 6 0 10
-4 10 -10z m-675 -10 c3 -5 1 -10 -4 -10 -6 0 -11 5 -11 10 0 6 2 10 4 10 3 0
8 -4 11 -10z m85 -10 c0 -5 -4 -10 -10 -10 -5 0 -10 5 -10 10 0 6 5 10 10 10
6 0 10 -4 10 -10z m120 -31 c0 -5 -7 -9 -15 -9 -9 0 -12 6 -9 15 6 15 24 11
24 -6z m-47 -110 c-5 -5 -21 -5 -38 0 l-30 9 33 1 c18 1 32 6 33 14 0 9 2 8 6
-1 3 -8 1 -18 -4 -23z m-1681 -394 c-2 -14 -8 -28 -13 -31 -10 -6 -12 39 -2
49 13 14 20 6 15 -18z m2608 -50 c8 -26 8 -28 -4 -13 -7 10 -17 14 -21 10 -5
-4 -5 1 -2 11 4 10 8 28 8 40 1 20 2 21 6 2 2 -11 8 -33 13 -50z m-29 -42
c-12 -20 -14 -14 -5 12 4 9 9 14 11 11 3 -2 0 -13 -6 -23z m-44 4 c10 -11 -30
-8 -47 3 -11 7 -8 8 13 6 15 -1 30 -6 34 -9z m-33 -46 c-1 -27 26 -28 33 -1 7
25 36 26 59 3 13 -13 19 -14 22 -5 2 8 10 4 23 -12 21 -27 26 -47 7 -28 -15
15 -28 16 -28 2 0 -6 11 -15 24 -22 19 -8 24 -18 23 -37 -2 -26 -3 -27 -31
-13 -22 11 -25 17 -15 24 10 7 3 8 -20 4 l-33 -6 16 25 c12 19 13 25 4 25 -17
0 -41 -38 -33 -50 4 -6 -1 -10 -9 -10 -9 0 -16 7 -16 15 0 8 -4 15 -10 15 -5
0 -10 -5 -10 -11 0 -6 -8 -8 -19 -4 -11 3 -26 -1 -35 -11 -10 -9 -19 -14 -22
-12 -2 3 2 11 11 18 8 7 15 17 15 22 0 5 10 23 23 40 16 22 18 32 10 35 -7 3
-13 9 -13 15 0 5 6 8 13 5 6 -2 12 -14 11 -26z m-2905 -7 c18 -9 30 -18 27
-21 -8 -8 -66 18 -66 28 0 12 2 12 39 -7z m2851 -43 c0 -6 -4 -11 -10 -11 -5
0 -10 7 -10 15 0 9 -6 12 -15 9 -8 -4 -15 -2 -15 4 0 6 6 12 12 14 14 5 38
-15 38 -31z m-2671 -7 c12 -15 21 -35 21 -45 0 -11 5 -19 10 -19 6 0 10 -7 10
-14 0 -21 -57 -1 -73 25 -7 11 -17 19 -24 19 -7 0 -13 5 -13 11 0 5 -13 15
-30 20 -42 15 -28 29 30 29 41 0 52 -4 69 -26z m2631 -3 c0 -6 -4 -13 -10 -16
-5 -3 -10 1 -10 9 0 9 5 16 10 16 6 0 10 -4 10 -9z m-2493 -31 c-2 -29 -17
-24 -17 6 0 14 4 23 9 19 6 -3 9 -14 8 -25z m2450 14 c-3 -3 -12 -4 -19 -1 -8
3 -5 6 6 6 11 1 17 -2 13 -5z m143 -33 c0 -5 -9 -7 -20 -4 -11 3 -20 7 -20 9
0 2 9 4 20 4 11 0 20 -4 20 -9z m-1105 -21 c3 -5 -1 -10 -9 -10 -9 0 -16 5
-16 10 0 6 4 10 9 10 6 0 13 -4 16 -10z m1070 0 c-3 -5 -12 -10 -20 -10 -8 0
-17 5 -20 10 -4 6 5 10 20 10 15 0 24 -4 20 -10z m225 -11 c0 -6 -4 -7 -10 -4
-5 3 -10 11 -10 16 0 6 5 7 10 4 6 -3 10 -11 10 -16z m-1340 2 c0 -12 -20 -25
-27 -18 -7 7 6 27 18 27 5 0 9 -4 9 -9z m100 -1 c0 -19 29 -22 45 -6 19 18 35
21 35 6 0 -5 -5 -10 -11 -10 -8 0 -7 -5 1 -15 11 -13 10 -18 -4 -28 -15 -11
-7 -12 47 -11 35 1 70 5 77 9 9 5 11 3 6 -6 -3 -8 -9 -22 -12 -31 -9 -24 -24
-23 -24 2 0 18 -3 19 -20 10 -25 -14 -26 -28 0 -32 18 -3 16 -7 -16 -43 l-35
-40 21 38 c16 30 17 37 5 37 -8 0 -15 -7 -15 -15 0 -8 -7 -15 -15 -15 -8 0
-20 -9 -27 -20 -14 -22 -44 -27 -51 -7 -3 7 -6 5 -6 -6 -1 -28 -44 -42 -81
-27 -16 7 -30 18 -30 25 0 22 -40 64 -55 58 -8 -3 -15 -1 -15 4 0 5 21 15 47
23 52 15 101 50 70 50 -9 0 -17 7 -17 15 0 9 9 15 24 15 13 0 26 7 30 15 6 17
26 20 26 5z m1050 -10 c0 -5 -5 -10 -11 -10 -5 0 -7 5 -4 10 3 6 8 10 11 10 2
0 4 -4 4 -10z m-1195 -20 c3 -5 1 -10 -4 -10 -6 0 -11 5 -11 10 0 6 2 10 4 10
3 0 8 -4 11 -10z m1160 0 c3 -6 -1 -7 -9 -4 -18 7 -21 14 -7 14 6 0 13 -4 16
-10z m-2484 -20 c5 0 9 -7 9 -15 0 -30 -92 -33 -98 -3 -2 12 5 18 25 21 15 2
34 2 41 0 8 -1 18 -3 23 -3z m1219 0 c8 -5 12 -11 9 -14 -3 -3 -14 1 -25 9
-21 16 -8 20 16 5z m90 -20 c0 -22 -8 -25 -30 -10 -13 9 -13 11 0 20 22 15 30
12 30 -10z m389 -34 c10 -12 8 -13 -8 -9 -24 6 -29 -15 -6 -23 8 -4 15 -10 15
-15 0 -5 -7 -9 -15 -9 -8 0 -15 5 -15 11 0 7 -10 9 -24 7 -31 -6 -25 12 12 34
15 9 28 17 28 17 1 1 7 -5 13 -13z m1081 -20 c0 -7 -3 -16 -7 -19 -7 -8 -33
25 -27 35 7 11 34 -2 34 -16z m-1510 -3 c-8 -3 -21 -12 -27 -21 -12 -14 -13
-14 -13 0 0 17 14 26 40 26 13 0 13 0 0 -5z m-1575 -23 c3 -5 1 -10 -4 -10 -6
0 -11 5 -11 10 0 6 2 10 4 10 3 0 8 -4 11 -10z m1615 -6 c0 -2 -7 -4 -15 -4
-8 0 -15 4 -15 10 0 5 7 7 15 4 8 -4 15 -8 15 -10z m-1585 -4 c3 -5 1 -10 -4
-10 -6 0 -11 5 -11 10 0 6 2 10 4 10 3 0 8 -4 11 -10z m3075 0 c0 -5 -4 -10
-10 -10 -5 0 -10 5 -10 10 0 6 5 10 10 10 6 0 10 -4 10 -10z m-3040 -20 c0 -5
-2 -10 -4 -10 -3 0 -8 5 -11 10 -3 6 -1 10 4 10 6 0 11 -4 11 -10z m1870 6 c0
-3 -4 -8 -10 -11 -5 -3 -10 -1 -10 4 0 6 5 11 10 11 6 0 10 -2 10 -4z m930 -6
c0 -5 -2 -10 -4 -10 -3 0 -8 5 -11 10 -3 6 -1 10 4 10 6 0 11 -4 11 -10z
m-2750 -25 c0 -8 -4 -15 -10 -15 -5 0 -10 7 -10 15 0 8 5 15 10 15 6 0 10 -7
10 -15z m3023 -32 c2 -10 8 -27 12 -38 4 -11 -2 -5 -14 13 -23 36 -25 42 -12
42 5 0 11 -8 14 -17z m-33 -43 c0 -5 -2 -10 -4 -10 -3 0 -8 5 -11 10 -3 6 -1
10 4 10 6 0 11 -4 11 -10z m70 -34 c0 -3 -4 -8 -10 -11 -5 -3 -10 -1 -10 4 0
6 5 11 10 11 6 0 10 -2 10 -4z m-409 -26 c5 0 9 -8 9 -17 0 -15 2 -16 10 -3 8
13 11 12 24 -5 9 -11 16 -14 16 -7 0 16 30 16 30 -1 0 -9 27 -13 97 -15 53 -2
107 -8 120 -13 33 -12 35 -12 31 13 -4 30 20 35 31 6 10 -23 10 -23 10 5 1 35
21 36 21 0 0 -29 15 -22 23 12 3 14 5 11 6 -10 1 -36 -8 -51 -34 -58 -12 -3
-3 -5 20 -7 32 -1 36 -3 20 -10 -11 -5 -14 -9 -7 -9 29 -2 9 -21 -23 -21 -21
0 -37 -6 -43 -16 -7 -12 -19 -15 -41 -12 -17 2 -31 1 -31 -3 0 -4 -20 -7 -44
-6 -24 1 -42 6 -38 11 3 6 -2 6 -14 1 -22 -10 -174 -14 -168 -4 2 3 -28 5 -66
4 -42 -1 -67 1 -64 7 3 5 -3 4 -14 -3 -17 -10 -23 -10 -37 1 -32 26 -54 113
-24 94 5 -3 7 -10 4 -15 -4 -5 -1 -9 4 -9 6 0 11 7 11 15 0 8 6 15 14 15 8 0
16 11 20 24 4 17 16 26 48 33 24 6 49 9 56 7 8 -2 18 -4 23 -4z m-141 -40 c0
-5 -4 -10 -10 -10 -5 0 -10 5 -10 10 0 6 5 10 10 10 6 0 10 -4 10 -10z m343 3
c-7 -2 -21 -2 -30 0 -10 3 -4 5 12 5 17 0 24 -2 18 -5z m117 -3 c0 -7 -14 -8
-37 -4 -52 9 -54 14 -5 14 23 0 42 -5 42 -10z m119 -114 c-11 -9 -69 -14 -69
-6 0 6 17 10 37 10 20 0 34 -2 32 -4z m3941 -1131 c17 -20 11 -25 -18 -14 -13
5 -20 13 -17 19 9 14 21 12 35 -5z m-90 -37 c0 -10 -5 -18 -10 -18 -13 0 -70
29 -70 35 0 2 18 3 40 2 31 -1 40 -5 40 -19z m788 -29 c17 -6 38 -21 47 -35
19 -29 5 -32 -19 -5 -10 11 -23 18 -29 15 -7 -2 -25 5 -42 16 -26 17 -27 20
-9 20 12 0 35 -5 52 -11z m-163 -19 c-28 -12 -45 -12 -45 0 0 6 15 10 33 9 27
0 29 -2 12 -9z m-508 -22 c-3 -8 -6 -5 -6 6 -1 11 2 17 5 13 3 -3 4 -12 1 -19z
m-355 -30 c37 -20 40 -23 21 -26 -24 -4 -31 -28 -10 -35 9 -3 9 -7 -1 -19 -7
-9 -10 -23 -6 -31 3 -9 -3 -23 -15 -34 -12 -9 -21 -23 -21 -30 0 -7 -4 -13 -8
-13 -5 0 -17 -17 -28 -37 -41 -80 -74 -92 -74 -27 0 31 -2 34 -30 34 -18 0
-33 6 -36 15 -4 8 -12 15 -20 15 -17 0 -19 37 -2 42 7 3 13 16 13 29 1 14 5
31 9 38 5 8 3 17 -5 22 -12 7 -11 9 1 9 20 0 41 -14 39 -26 -4 -22 2 -23 22
-5 12 11 19 26 16 34 -4 10 4 17 24 21 25 5 29 9 24 26 -5 16 -2 20 19 20 14
0 45 -10 68 -22z m939 -16 c19 -21 25 -42 13 -42 -14 0 -72 41 -77 54 -9 22
41 12 64 -12z m-1041 8 c0 -5 -7 -10 -16 -10 -8 0 -12 5 -9 10 3 6 10 10 16
10 5 0 9 -4 9 -10z m746 -98 c-4 -12 5 -29 29 -52 19 -19 35 -38 35 -43 0 -6
8 -16 18 -23 10 -8 12 -13 5 -14 -7 0 -13 -7 -13 -15 0 -8 -4 -15 -10 -15 -5
0 -20 -10 -33 -22 -13 -13 -32 -31 -43 -40 -46 -41 -56 -57 -49 -77 4 -14 2
-21 -7 -21 -8 0 -22 -16 -31 -36 -14 -29 -20 -34 -31 -24 -11 9 -17 7 -25 -7
-6 -10 -11 -12 -11 -5 0 7 -14 12 -35 12 -60 0 -116 41 -84 61 17 10 0 31 -22
26 -11 -3 -19 0 -19 7 0 6 -14 17 -32 24 -31 11 -31 12 -13 32 10 11 35 30 54
42 20 12 38 25 41 28 17 21 105 71 137 79 21 5 32 9 26 10 -22 2 -14 21 8 21
14 0 19 5 16 14 -4 9 -1 13 6 10 7 -2 23 7 37 20 30 30 54 34 46 8z m32 5 c-1
-2 3 -11 11 -21 20 -23 5 -33 -18 -12 -16 14 -17 21 -8 31 11 11 24 13 15 2z
m417 -16 c-3 -6 -14 -11 -23 -11 -13 0 -13 2 4 14 21 15 30 14 19 -3z m37 -69
c-18 -15 -32 -34 -32 -42 0 -17 -19 -40 -32 -40 -4 0 -8 7 -8 15 0 8 7 15 15
15 8 0 15 5 15 10 0 6 -5 10 -12 10 -18 0 32 48 56 53 11 2 23 5 26 5 3 1 -10
-11 -28 -26z m141 17 c-15 -15 5 -38 27 -32 10 3 8 -1 -4 -11 -22 -18 -65 -22
-67 -6 -1 6 -2 16 -3 23 -2 18 16 36 39 37 14 0 16 -3 8 -11z m-116 -125 c12
-3 23 -16 26 -30 4 -21 1 -24 -29 -24 -24 0 -34 -5 -34 -15 0 -8 6 -15 14 -15
16 0 31 -17 40 -47 6 -18 2 -22 -24 -28 -16 -4 -30 -10 -30 -15 0 -17 -69 -20
-112 -5 -23 9 -52 19 -63 22 -26 8 -52 33 -34 33 6 0 34 23 60 50 49 52 93 66
105 35 10 -24 27 -17 20 9 -9 35 9 44 61 30z m203 -46 c0 -7 -16 -23 -35 -36
-43 -28 -45 -21 -4 18 36 34 39 35 39 18z m-746 -53 c-4 -8 -10 -15 -15 -15
-4 0 -6 7 -3 15 4 8 10 15 15 15 4 0 6 -7 3 -15z m342 -119 c57 -57 67 -74 33
-56 -26 14 -35 7 -14 -10 18 -15 20 -56 2 -67 -6 -4 -25 -25 -40 -45 -16 -21
-37 -38 -48 -38 -10 0 -19 -6 -19 -14 0 -7 -6 -18 -13 -24 -7 -6 -24 -33 -37
-60 -19 -38 -35 -55 -65 -69 -47 -21 -125 -20 -125 3 0 16 -16 19 -25 4 -4 -6
-11 -7 -17 -4 -6 4 -14 1 -18 -6 -11 -18 -41 4 -62 45 l-17 33 41 34 c40 32
185 174 261 257 21 23 42 39 47 36 4 -3 10 4 13 15 9 35 46 23 103 -34z m-562
8 c9 -3 16 -16 16 -28 0 -17 -2 -18 -10 -6 -8 13 -10 12 -10 -2 0 -21 -36 -25
-43 -5 -11 35 11 55 47 41z m-774 -28 c0 -3 -4 -8 -10 -11 -5 -3 -10 -1 -10 4
0 6 5 11 10 11 6 0 10 -2 10 -4z m690 -86 c0 -21 -16 -26 -39 -11 -18 11 -5
31 20 31 12 0 19 -7 19 -20z m-100 -30 c8 -5 12 -12 9 -15 -8 -8 -39 5 -39 16
0 11 11 11 30 -1z m-690 -10 c0 -5 -5 -10 -11 -10 -5 0 -7 5 -4 10 3 6 8 10
11 10 2 0 4 -4 4 -10z m687 -30 c6 0 18 -12 28 -26 15 -23 15 -27 1 -43 -9
-10 -16 -26 -16 -36 0 -14 -6 -16 -30 -12 -19 4 -32 2 -37 -6 -4 -7 -22 -19
-40 -26 -22 -9 -38 -26 -52 -57 -17 -34 -26 -44 -45 -44 -14 0 -28 -5 -31 -10
-7 -12 -25 -4 -25 11 0 5 7 9 15 9 8 0 15 5 15 10 0 6 -5 10 -11 10 -7 0 0 11
14 25 13 14 30 45 36 69 11 46 74 109 84 83 3 -6 8 3 12 21 8 33 20 41 28 20
3 -7 6 -2 6 11 1 23 2 23 19 8 10 -10 23 -17 29 -17z m-739 -122 c17 -17 15
-111 -3 -154 -13 -32 -13 -38 3 -60 20 -28 26 -29 46 -9 8 9 33 15 60 15 24 0
57 5 73 12 51 21 77 20 91 -3 11 -17 11 -23 2 -29 -9 -6 -9 -13 -1 -28 11 -21
30 -21 58 0 7 6 17 7 22 3 6 -3 28 6 50 21 24 16 47 24 57 20 19 -7 12 -19
-14 -22 -9 -2 -18 -8 -20 -13 -2 -6 -13 -11 -25 -11 l-21 0 22 -16 c16 -11 22
-25 22 -55 0 -26 5 -42 15 -45 8 -4 15 -14 15 -24 0 -10 7 -21 16 -24 22 -9
14 -51 -10 -51 -20 0 -31 -24 -68 -137 -11 -33 -12 -48 -4 -48 6 0 3 -5 -7
-11 -23 -14 -31 -7 -57 47 -13 25 -25 42 -29 37 -3 -5 -23 -14 -44 -20 -33
-10 -39 -9 -44 5 -4 9 -10 20 -15 23 -5 3 -9 27 -10 53 -3 52 -22 72 -42 44
-11 -15 -53 -23 -103 -19 -16 1 -20 6 -16 20 3 13 -3 25 -21 36 -28 18 -36 38
-12 29 11 -4 14 2 14 26 -1 24 -3 28 -10 16 -10 -18 -98 -23 -98 -5 0 5 -8 9
-17 8 -41 -4 -63 2 -63 16 0 8 -6 15 -12 16 -7 0 -24 14 -37 30 l-23 30 26 37
c14 21 26 46 26 55 0 10 12 22 26 28 26 9 26 10 8 24 -18 13 -18 14 8 20 16 4
35 5 43 1 11 -4 15 2 15 23 0 21 7 30 33 42 17 8 36 24 42 37 11 25 16 27 33
10z m2083 -39 c16 -17 29 -35 29 -40 0 -14 -28 -11 -33 4 -3 7 -8 5 -13 -8 -4
-11 -27 -37 -51 -58 -30 -28 -43 -46 -43 -65 0 -18 -7 -31 -22 -37 -13 -6 -27
-28 -37 -61 -15 -48 -18 -51 -40 -42 -15 5 -27 5 -30 -1 -7 -11 -83 -38 -120
-43 -32 -4 -37 -22 -12 -47 18 -18 25 -39 22 -68 -1 -8 -15 -13 -37 -13 -27 0
-41 -7 -61 -30 -13 -16 -31 -30 -39 -30 -8 0 -14 -5 -14 -11 0 -7 -7 -17 -15
-23 -9 -6 -17 -22 -18 -35 -1 -14 -9 -26 -19 -29 -10 -2 -18 -8 -18 -13 0 -5
-17 -9 -39 -9 -38 0 -68 -20 -57 -39 3 -5 -3 -7 -14 -4 -24 6 -26 19 -4 31 10
6 16 23 16 48 0 35 7 46 63 100 35 34 66 59 69 56 3 -3 6 0 6 7 0 6 11 16 25
21 14 5 25 14 25 20 0 5 7 10 15 10 8 0 15 8 15 18 1 21 23 52 39 52 6 0 11
14 11 31 0 22 5 32 19 36 11 3 22 16 25 29 4 13 11 24 16 24 6 0 10 9 10 20 0
35 129 187 185 218 11 6 42 12 68 12 42 0 53 -4 78 -31z m-1057 -13 c-3 -8 4
-24 15 -35 21 -21 28 -51 14 -51 -5 0 -20 10 -35 23 -20 17 -25 29 -21 50 3
15 11 27 19 27 7 0 11 -6 8 -14z m-34 -105 c0 -6 -4 -13 -10 -16 -5 -3 -10 1
-10 9 0 9 5 16 10 16 6 0 10 -4 10 -9z m-5590 -162 c0 -6 -4 -7 -10 -4 -5 3
-10 11 -10 16 0 6 5 7 10 4 6 -3 10 -11 10 -16z m4700 -219 c0 -5 -5 -10 -11
-10 -5 0 -7 5 -4 10 3 6 8 10 11 10 2 0 4 -4 4 -10z m575 -61 c0 -37 -5 -53
-18 -60 -9 -6 -17 -17 -17 -26 0 -9 -7 -25 -17 -35 -10 -12 -12 -18 -4 -18 7
0 9 -5 6 -10 -11 -18 5 -48 28 -54 17 -5 19 -8 8 -15 -9 -6 -10 -11 -2 -15 17
-11 13 -34 -10 -66 -12 -15 -21 -40 -21 -55 0 -18 -5 -25 -14 -21 -8 3 -11 0
-7 -10 3 -9 -1 -14 -15 -14 -11 0 -25 -7 -32 -15 -7 -9 -20 -13 -28 -10 -9 3
-19 0 -23 -6 -5 -9 -12 -8 -24 4 -9 10 -20 17 -24 17 -4 0 -8 16 -9 36 -1 20
-4 45 -7 55 -4 12 -1 19 7 19 8 0 18 15 23 32 6 21 18 34 30 36 11 2 25 8 30
14 6 6 4 7 -7 3 -41 -16 -13 31 41 68 l26 18 -28 -7 c-24 -5 -26 -4 -20 12 8
23 53 97 63 104 4 3 10 15 14 28 4 12 12 22 17 22 6 0 7 -4 4 -10 -3 -5 -2
-10 4 -10 6 0 8 13 4 33 -5 27 -3 30 8 19 8 -8 14 -33 14 -63z m655 -149 c0
-5 -2 -10 -4 -10 -3 0 -8 5 -11 10 -3 6 -1 10 4 10 6 0 11 -4 11 -10z m-9870
-492 c0 -10 -2 -18 -5 -18 -2 0 -9 8 -14 18 -8 14 -6 19 5 19 7 0 14 -9 14
-19z m-45 -54 c-4 -77 -15 -99 -15 -28 0 44 8 94 15 94 1 0 1 -30 0 -66z m22
14 c-3 -8 -6 -5 -6 6 -1 11 2 17 5 13 3 -3 4 -12 1 -19z m9428 3 c3 -5 1 -12
-5 -16 -5 -3 -10 1 -10 9 0 18 6 21 15 7z m-9405 -171 c0 -5 -4 -10 -10 -10
-5 0 -10 5 -10 10 0 6 5 10 10 10 6 0 10 -4 10 -10z m290 -500 c-9 -16 -13
-18 -24 -8 -17 16 -11 28 15 28 17 0 18 -3 9 -20z m-203 -76 c-3 -3 -12 -4
-19 -1 -8 3 -5 6 6 6 11 1 17 -2 13 -5z m-377 -112 c0 -7 -4 -10 -10 -7 -5 3
-10 16 -10 28 0 18 2 19 10 7 5 -8 10 -21 10 -28z m135 -12 c3 -5 1 -10 -4
-10 -6 0 -11 5 -11 10 0 6 2 10 4 10 3 0 8 -4 11 -10z m555 -16 c0 -2 -7 -4
-15 -4 -8 0 -15 4 -15 10 0 5 7 7 15 4 8 -4 15 -8 15 -10z m-680 -29 c0 -8 -2
-15 -4 -15 -2 0 -6 7 -10 15 -3 8 -1 15 4 15 6 0 10 -7 10 -15z m-15 -82 c3
-18 4 -33 1 -33 -7 0 -23 39 -32 78 -6 26 -6 26 9 7 8 -11 18 -35 22 -52z
m156 -7 c-11 -28 -31 -36 -31 -12 0 15 30 50 36 43 3 -2 0 -16 -5 -31z m1 -78
c2 -15 11 -24 26 -26 25 -4 30 -22 6 -22 -9 0 -22 -7 -29 -17 -7 -9 -17 -13
-23 -9 -14 9 -16 36 -2 36 5 0 7 13 4 30 -4 18 -2 30 4 30 6 0 12 -10 14 -22z
m5507 -275 c1 -7 -3 -13 -9 -13 -5 0 -10 15 -9 33 0 27 2 29 9 12 5 -11 9 -26
9 -32z m2838 -9 c3 -8 -13 -10 -49 -7 -38 3 -49 1 -38 -6 8 -5 27 -7 43 -4 28
6 28 5 25 -33 -3 -33 -7 -40 -28 -42 -14 -2 -29 -7 -35 -11 -13 -10 -75 6 -75
20 0 5 14 12 30 16 44 8 37 27 -8 20 -45 -8 -117 27 -91 44 21 13 38 11 55 -6
17 -17 49 -21 39 -5 -3 6 4 14 17 20 30 12 110 8 115 -6z m-7637 -64 c0 -5 -5
-10 -11 -10 -5 0 -7 5 -4 10 3 6 8 10 11 10 2 0 4 -4 4 -10z m-90 -10 c0 -5
-4 -10 -10 -10 -5 0 -10 5 -10 10 0 6 5 10 10 10 6 0 10 -4 10 -10z m67 -26
c-9 -9 -28 6 -21 18 4 6 10 6 17 -1 6 -6 8 -13 4 -17z m7483 -4 c0 -5 12 -10
28 -11 26 0 26 0 4 -10 -18 -7 -28 -4 -44 11 -19 17 -19 20 -5 20 9 0 17 -4
17 -10z m170 -29 c0 -36 -1 -38 -27 -33 -16 3 -36 10 -46 17 -16 11 -14 13 17
19 22 4 36 13 36 21 0 8 5 15 10 15 6 0 10 -17 10 -39z m-8215 -151 c3 -5 1
-10 -4 -10 -6 0 -11 5 -11 10 0 6 2 10 4 10 3 0 8 -4 11 -10z m179 -359 c3 -5
-3 -11 -15 -14 -16 -4 -18 -3 -8 9 13 16 16 17 23 5z m720 -105 c-8 -20 -34
-29 -34 -11 0 7 8 16 18 18 9 3 18 5 19 6 1 0 0 -5 -3 -13z m386 -16 c0 -5 -7
-7 -15 -4 -8 4 -12 10 -9 15 6 11 24 2 24 -11z m-65 -30 c-3 -5 -10 -10 -16
-10 -5 0 -9 5 -9 10 0 6 7 10 16 10 8 0 12 -4 9 -10z m-945 -10 c0 -5 -4 -10
-9 -10 -5 0 -18 -3 -28 -6 -16 -6 -16 -5 2 9 23 19 35 21 35 7z m-10 -110 c0
-5 -4 -10 -10 -10 -5 0 -10 5 -10 10 0 6 5 10 10 10 6 0 10 -4 10 -10z m24
-25 c-4 -8 -8 -15 -10 -15 -2 0 -4 7 -4 15 0 8 4 15 10 15 5 0 7 -7 4 -15z
m746 -73 c0 -5 -11 -14 -25 -20 -14 -7 -28 -19 -31 -27 -7 -18 -24 -20 -24 -2
0 6 15 22 33 35 34 23 47 27 47 14z m-716 -54 c27 -23 11 -23 -18 0 -13 9 -20
24 -18 32 5 13 6 13 10 0 3 -8 15 -22 26 -32z m831 12 c-3 -5 -11 -10 -16 -10
-6 0 -7 5 -4 10 3 6 11 10 16 10 6 0 7 -4 4 -10z m101 -2 c4 -6 3 -8 -4 -4 -5
3 -12 0 -15 -6 -2 -7 -8 -9 -13 -5 -5 4 -2 12 6 17 19 12 17 12 26 -2z m39
-718 c-3 -5 -12 -10 -18 -10 -7 0 -6 4 3 10 19 12 23 12 15 0z m425 -185 c0
-8 -7 -15 -15 -15 -16 0 -20 12 -8 23 11 12 23 8 23 -8z m3945 5 c-3 -5 -10
-10 -16 -10 -5 0 -9 5 -9 10 0 6 7 10 16 10 8 0 12 -4 9 -10z m-4273 -20 c-23
-22 -42 -26 -42 -9 0 6 -8 8 -17 5 -15 -5 -15 -4 1 9 11 8 33 15 50 15 l30 0
-22 -20z m4225 -17 c4 -9 2 -18 -4 -20 -6 -2 -23 -15 -38 -29 -29 -27 -67 -35
-45 -9 10 13 9 15 -9 15 -35 0 -24 15 27 37 59 26 61 27 69 6z m-3983 -22 c8
-13 -17 -61 -33 -61 -11 0 -11 3 -1 15 10 13 9 15 -8 15 -15 0 -20 6 -19 20 1
15 8 20 29 20 15 0 29 -4 32 -9z m63 -57 c-3 -3 -12 -4 -19 -1 -8 3 -5 6 6 6
11 1 17 -2 13 -5z m-33 -65 c-6 -11 -24 -2 -24 11 0 5 7 7 15 4 8 -4 12 -10 9
-15z m-344 1 c0 -5 -4 -10 -10 -10 -5 0 -10 5 -10 10 0 6 5 10 10 10 6 0 10
-4 10 -10z m84 -37 c-5 -5 -11 -12 -15 -16 -3 -4 -12 -1 -19 8 -11 13 -9 15
15 15 16 0 24 -3 19 -7z"/>
<path d="M10440 8420 c0 -5 5 -10 10 -10 6 0 10 5 10 10 0 6 -4 10 -10 10 -5
0 -10 -4 -10 -10z"/>
<path d="M10530 8394 c0 -8 5 -12 10 -9 6 4 8 11 5 16 -9 14 -15 11 -15 -7z"/>
<path d="M10392 8378 c-7 -7 -11 -21 -11 -32 1 -21 1 -21 6 -1 3 11 10 26 15
33 13 15 6 16 -10 0z"/>
<path d="M11110 7714 c0 -8 5 -12 10 -9 6 4 8 11 5 16 -9 14 -15 11 -15 -7z"/>
<path d="M11150 7715 c0 -8 5 -15 10 -15 6 0 10 7 10 15 0 8 -4 15 -10 15 -5
0 -10 -7 -10 -15z"/>
<path d="M10105 7530 c-3 -5 1 -10 9 -10 9 0 16 5 16 10 0 6 -4 10 -9 10 -6 0
-13 -4 -16 -10z"/>
<path d="M11258 7213 c12 -2 20 -7 18 -11 -2 -4 18 -7 44 -7 66 0 50 11 -25
18 -33 2 -50 3 -37 0z"/>
<path d="M16071 5434 c0 -11 3 -14 6 -6 3 7 2 16 -1 19 -3 4 -6 -2 -5 -13z"/>
<path d="M16025 5350 c3 -5 8 -10 11 -10 2 0 4 5 4 10 0 6 -5 10 -11 10 -5 0
-7 -4 -4 -10z"/>
<path d="M14762 4618 c7 -19 38 -22 38 -4 0 10 -9 16 -21 16 -12 0 -19 -5 -17
-12z"/>
<path d="M9938 5063 c-31 -5 -61 -33 -34 -33 9 0 16 -6 16 -13 0 -8 21 -20 47
-28 48 -15 69 -38 36 -40 -12 0 -9 -4 10 -11 15 -5 27 -16 27 -23 0 -8 9 -19
20 -25 11 -6 20 -18 20 -28 1 -9 19 -30 40 -47 21 -16 39 -37 40 -45 0 -8 18
-26 40 -40 22 -14 40 -28 40 -32 0 -12 47 -58 59 -58 17 0 60 -52 61 -72 0
-10 6 -18 13 -18 8 0 23 -20 36 -44 12 -25 33 -53 46 -63 13 -10 25 -25 27
-33 2 -8 15 -20 31 -27 16 -7 27 -20 27 -32 0 -11 8 -26 18 -33 9 -7 22 -22
28 -33 16 -29 60 -32 74 -5 9 16 8 24 -5 36 -8 8 -15 20 -15 25 0 5 -9 20 -21
32 -11 12 -23 34 -26 48 -4 20 -13 28 -34 33 -16 3 -29 9 -28 13 4 25 -4 46
-26 65 -14 12 -25 31 -25 42 0 12 -13 30 -30 41 -16 11 -30 23 -30 28 0 4 -7
7 -16 7 -10 0 -13 6 -9 19 6 19 -34 55 -87 79 -20 8 -28 19 -28 37 0 19 -19
45 -69 94 -39 38 -68 71 -65 73 2 3 -7 15 -20 27 -14 13 -22 29 -19 37 3 8 -1
14 -11 14 -9 0 -16 -7 -16 -15 0 -8 -4 -15 -9 -15 -5 0 -14 7 -21 15 -7 8 -9
15 -5 15 5 0 0 9 -10 20 -17 19 -38 22 -97 13z"/>
<path d="M6862 4900 c-18 -29 -15 -38 4 -12 9 13 14 25 12 27 -2 2 -9 -5 -16
-15z"/>
<path d="M6821 4884 c0 -11 3 -14 6 -6 3 7 2 16 -1 19 -3 4 -6 -2 -5 -13z"/>
<path d="M6767 4788 c-16 -22 -26 -43 -23 -46 3 -3 6 0 6 7 0 7 7 11 14 8 10
-4 13 -1 9 9 -6 17 13 19 21 2 3 -7 2 0 -1 16 -4 20 -3 27 6 22 6 -4 11 -3 11
3 0 24 -17 16 -43 -21z"/>
<path d="M6720 4731 c0 -10 19 -25 25 -20 1 2 -3 10 -11 17 -8 7 -14 8 -14 3z"/>
<path d="M6705 4700 c3 -5 8 -10 11 -10 2 0 4 5 4 10 0 6 -5 10 -11 10 -5 0
-7 -4 -4 -10z"/>
<path d="M6670 4682 c0 -12 19 -26 26 -19 2 2 -2 10 -11 17 -9 8 -15 8 -15 2z"/>
<path d="M6654 4636 c-10 -27 2 -43 14 -19 8 14 9 24 2 28 -6 3 -13 -1 -16 -9z"/>
<path d="M9985 4610 c-3 -5 -1 -10 4 -10 6 0 11 5 11 10 0 6 -2 10 -4 10 -3 0
-8 -4 -11 -10z"/>
<path d="M6580 4495 c0 -8 -4 -15 -10 -15 -5 0 -7 -7 -3 -16 5 -14 8 -12 19 7
16 29 17 39 4 39 -5 0 -10 -7 -10 -15z"/>
<path d="M10715 4369 c-10 -30 -2 -32 12 -3 6 13 7 24 3 24 -5 0 -12 -9 -15
-21z"/>
<path d="M10777 4275 c15 -32 19 -34 32 -20 13 13 13 17 -7 35 -33 31 -44 24
-25 -15z"/>
<path d="M10058 4238 c-20 -20 -24 -48 -8 -48 11 0 33 48 28 59 -2 4 -11 -1
-20 -11z"/>
<path d="M10808 4221 c-15 -18 -15 -21 3 -37 17 -16 22 -16 30 -4 11 18 8 52
-6 57 -6 2 -18 -6 -27 -16z"/>
<path d="M11051 4134 c0 -11 3 -14 6 -6 3 7 2 16 -1 19 -3 4 -6 -2 -5 -13z"/>
<path d="M10875 4098 c14 -51 28 -78 40 -78 7 0 12 -8 11 -17 -1 -22 32 -29
40 -9 9 25 -14 72 -42 85 -13 6 -27 18 -30 26 -10 24 -26 17 -19 -7z"/>
<path d="M11061 4084 c0 -11 3 -14 6 -6 3 7 2 16 -1 19 -3 4 -6 -2 -5 -13z"/>
<path d="M7840 4017 c0 -7 18 -31 40 -53 22 -21 40 -42 40 -46 0 -4 12 -20 26
-35 15 -15 35 -46 46 -68 16 -33 48 -80 97 -141 5 -6 17 -26 26 -44 21 -41
134 -210 141 -210 7 0 -75 160 -112 218 -19 29 -34 55 -34 58 0 3 -13 23 -30
44 -16 21 -30 42 -30 47 0 4 -10 19 -23 33 -13 14 -27 33 -33 42 -5 9 -33 41
-61 72 -29 31 -53 60 -53 64 0 4 -9 13 -20 20 -16 10 -20 10 -20 -1z"/>
<path d="M10067 3980 c3 -11 7 -20 9 -20 2 0 4 9 4 20 0 11 -4 20 -9 20 -5 0
-7 -9 -4 -20z"/>
<path d="M9608 3983 c7 -3 16 -2 19 1 4 3 -2 6 -13 5 -11 0 -14 -3 -6 -6z"/>
<path d="M6090 3943 c0 -11 -5 -24 -11 -30 -7 -7 -7 -21 -1 -44 l10 -34 1 32
c1 17 5 43 11 57 6 16 6 27 0 31 -6 4 -10 -2 -10 -12z"/>
<path d="M10060 3880 c0 -5 5 -10 10 -10 6 0 10 5 10 10 0 6 -4 10 -10 10 -5
0 -10 -4 -10 -10z"/>
<path d="M6073 3798 c-1 -27 1 -29 7 -13 11 27 12 45 2 45 -5 0 -9 -15 -9 -32z"/>
<path d="M10072 3788 c-7 -9 -9 -19 -4 -22 5 -3 8 -26 6 -51 -1 -25 1 -45 6
-45 14 0 17 23 11 79 -5 46 -8 52 -19 39z"/>
<path d="M6090 3719 c0 -5 5 -7 10 -4 6 3 10 8 10 11 0 2 -4 4 -10 4 -5 0 -10
-5 -10 -11z"/>
<path d="M10081 3648 c-12 -34 -2 -108 15 -108 8 0 14 5 14 10 0 6 -5 10 -11
10 -5 0 -7 5 -3 11 11 18 14 99 3 99 -5 0 -13 -10 -18 -22z"/>
<path d="M6111 3604 c0 -11 3 -14 6 -6 3 7 2 16 -1 19 -3 4 -6 -2 -5 -13z"/>
<path d="M6018 3525 c-4 -17 -1 -25 8 -25 8 0 14 11 14 25 0 14 -4 25 -9 25
-5 0 -11 -11 -13 -25z"/>
<path d="M6062 3530 c0 -14 2 -19 5 -12 2 6 2 18 0 25 -3 6 -5 1 -5 -13z"/>
<path d="M6130 3523 c0 -4 5 -15 10 -23 8 -13 10 -13 10 2 0 9 -4 20 -10 23
-5 3 -10 3 -10 -2z"/>
<path d="M10080 3520 c0 -6 5 -20 11 -31 7 -15 7 -24 0 -33 -8 -10 -7 -17 4
-26 8 -7 15 -9 16 -4 0 5 2 21 4 37 2 15 -1 27 -6 27 -5 0 -9 6 -9 14 0 8 -4
18 -10 21 -5 3 -10 1 -10 -5z"/>
<path d="M6786 3493 c-8 -9 51 -43 74 -43 22 0 35 -16 20 -25 -18 -11 22 -34
49 -28 14 4 26 0 32 -8 14 -23 10 -31 -11 -24 -11 4 -20 2 -20 -4 0 -6 -12
-11 -27 -12 l-28 0 25 -10 c14 -6 52 -7 85 -4 65 6 73 3 93 -35 7 -14 32 -33
57 -43 24 -10 46 -25 49 -33 3 -8 12 -14 21 -14 8 0 44 -18 79 -40 35 -22 71
-40 80 -40 9 0 19 -7 22 -15 3 -8 14 -17 25 -20 10 -4 19 -13 19 -21 0 -7 15
-20 33 -28 38 -18 77 -50 77 -65 0 -6 11 -11 25 -11 14 0 35 -10 47 -22 13
-13 39 -31 58 -42 19 -10 45 -29 58 -41 26 -26 80 -39 122 -30 27 6 27 7 14
34 -7 15 -25 34 -39 41 -14 7 -32 24 -40 37 -9 12 -20 23 -26 23 -10 0 -36 19
-98 71 -13 11 -41 30 -62 42 -22 12 -39 28 -39 35 0 7 -20 21 -45 32 -25 11
-45 24 -45 30 0 6 -12 15 -26 20 -14 6 -51 27 -81 47 -30 20 -81 49 -113 65
-32 15 -60 34 -63 43 -4 8 -25 18 -48 21 -27 5 -53 18 -75 39 -31 30 -86 54
-161 70 -49 10 -111 14 -117 8z"/>
<path d="M6070 3459 c0 -13 5 -31 10 -39 7 -11 8 -5 4 20 -8 43 -14 51 -14 19z"/>
<path d="M6088 3377 c-4 -19 -1 -27 8 -27 15 0 16 6 5 35 -7 17 -8 17 -13 -8z"/>
<path d="M7962 3372 c4 -21 38 -29 38 -9 0 8 -9 17 -21 20 -15 4 -19 1 -17
-11z"/>
<path d="M10095 3360 c-3 -5 1 -10 9 -10 9 0 16 5 16 10 0 6 -4 10 -9 10 -6 0
-13 -4 -16 -10z"/>
<path d="M8022 3310 c12 -16 28 -30 37 -30 8 0 11 -3 8 -7 -8 -7 31 -53 45
-53 18 0 5 22 -42 70 -54 55 -83 67 -48 20z"/>
<path d="M10160 3330 c0 -5 5 -10 10 -10 6 0 10 5 10 10 0 6 -4 10 -10 10 -5
0 -10 -4 -10 -10z"/>
<path d="M6803 3320 c-13 -5 -23 -12 -23 -15 0 -9 16 -5 36 10 22 16 19 18
-13 5z"/>
<path d="M10116 3298 c4 -18 8 -50 8 -70 0 -21 5 -38 10 -38 4 0 3 -7 -4 -15
-17 -20 -5 -19 20 2 23 20 26 39 8 47 -10 5 -10 7 0 12 10 5 8 10 -8 21 -17
12 -21 22 -16 44 4 22 2 29 -10 29 -12 0 -14 -6 -8 -32z"/>
<path d="M5926 3273 c-6 -14 -5 -15 5 -6 7 7 10 15 7 18 -3 3 -9 -2 -12 -12z"/>
<path d="M8130 3200 c0 -5 9 -19 20 -30 11 -11 20 -27 20 -35 0 -8 7 -15 16
-15 8 0 13 -4 10 -9 -10 -16 5 -41 25 -41 32 0 22 33 -28 88 -47 51 -63 62
-63 42z"/>
<path d="M11193 3166 c7 -13 15 -22 19 -20 8 5 -13 44 -23 44 -4 0 -2 -11 4
-24z"/>
<path d="M10136 3131 c-4 -5 -2 -12 3 -15 5 -4 12 -2 15 3 4 5 2 12 -3 15 -5
4 -12 2 -15 -3z"/>
<path d="M5890 3064 c0 -8 5 -12 10 -9 6 4 8 11 5 16 -9 14 -15 11 -15 -7z"/>
<path d="M8244 3059 c-9 -14 36 -109 51 -109 7 0 18 7 25 15 10 13 10 19 -4
33 -9 10 -16 23 -16 29 0 10 -32 43 -43 43 -3 0 -9 -5 -13 -11z"/>
<path d="M5980 3031 c0 -11 -3 -26 -6 -35 -10 -26 12 -18 31 10 14 22 15 28 4
35 -21 13 -29 11 -29 -10z"/>
<path d="M10169 3021 c12 -8 51 -4 51 5 0 2 -15 4 -32 4 -23 0 -29 -3 -19 -9z"/>
<path d="M8320 2928 c0 -26 11 -45 57 -91 31 -31 58 -55 61 -53 2 3 -11 30
-29 61 -19 31 -40 69 -48 86 -20 39 -41 38 -41 -3z"/>
<path d="M11197 2939 c4 -13 8 -18 11 -10 2 7 -1 18 -6 23 -8 8 -9 4 -5 -13z"/>
<path d="M10173 2938 c-6 -9 -5 -21 4 -38 l15 -25 -6 24 c-3 14 0 31 6 38 6 8
7 13 0 13 -5 0 -14 -6 -19 -12z"/>
<path d="M10191 2814 c-1 -12 6 -25 15 -28 13 -5 14 -3 7 6 -6 7 -13 20 -16
28 -4 10 -6 8 -6 -6z"/>
<path d="M7840 2799 c0 -24 23 -21 28 4 2 10 -3 17 -12 17 -10 0 -16 -9 -16
-21z"/>
<path d="M10176 2751 c-4 -5 -2 -12 3 -15 5 -4 12 -2 15 3 4 5 2 12 -3 15 -5
4 -12 2 -15 -3z"/>
<path d="M8260 2725 c-25 -18 -29 -25 -16 -25 12 0 16 -5 13 -14 -6 -15 35
-66 53 -66 5 0 10 -6 10 -14 0 -8 9 -17 19 -21 11 -3 28 -19 38 -35 26 -41
194 -212 201 -205 4 3 1 9 -6 14 -6 4 -14 22 -16 40 -2 18 -13 41 -25 52 -11
11 -21 24 -21 30 0 5 -12 21 -27 35 -14 13 -28 35 -29 47 -8 59 -11 71 -22 75
-7 2 -12 12 -12 23 0 11 -7 22 -15 25 -8 4 -15 12 -15 20 0 8 -9 14 -20 14
-22 0 -27 15 -7 23 6 3 -6 6 -29 6 -28 1 -50 -6 -74 -24z"/>
<path d="M11531 2734 c0 -11 3 -14 6 -6 3 7 2 16 -1 19 -3 4 -6 -2 -5 -13z"/>
<path d="M6210 2725 c0 -8 5 -15 10 -15 6 0 10 7 10 15 0 8 -4 15 -10 15 -5 0
-10 -7 -10 -15z"/>
<path d="M6240 2730 c0 -5 5 -10 10 -10 6 0 10 5 10 10 0 6 -4 10 -10 10 -5 0
-10 -4 -10 -10z"/>
<path d="M11531 2688 c0 -13 4 -32 9 -43 7 -15 9 -10 9 23 1 23 -3 42 -9 42
-5 0 -10 -10 -9 -22z"/>
<path d="M10210 2670 c0 -5 7 -10 15 -10 8 0 15 5 15 10 0 6 -7 10 -15 10 -8
0 -15 -4 -15 -10z"/>
<path d="M6090 2640 c0 -5 4 -10 9 -10 6 0 13 5 16 10 3 6 -1 10 -9 10 -9 0
-16 -4 -16 -10z"/>
<path d="M5975 2550 c-19 -8 -19 -9 3 -9 12 -1 22 4 22 9 0 6 -1 10 -2 9 -2 0
-12 -4 -23 -9z"/>
<path d="M10231 2544 c0 -11 3 -14 6 -6 3 7 2 16 -1 19 -3 4 -6 -2 -5 -13z"/>
<path d="M10200 2539 c0 -5 5 -7 10 -4 6 3 10 8 10 11 0 2 -4 4 -10 4 -5 0
-10 -5 -10 -11z"/>
<path d="M10210 2480 c0 -5 5 -10 10 -10 6 0 10 -7 10 -17 0 -9 3 -14 6 -10 8
8 -5 47 -17 47 -5 0 -9 -4 -9 -10z"/>
<path d="M6040 2470 c-8 -5 -10 -10 -5 -10 6 0 17 5 25 10 8 5 11 10 5 10 -5
0 -17 -5 -25 -10z"/>
<path d="M6316 2451 c-4 -5 -2 -12 3 -15 5 -4 12 -2 15 3 4 5 2 12 -3 15 -5 4
-12 2 -15 -3z"/>
<path d="M10206 2377 c-24 -21 -26 -37 -5 -37 9 0 42 50 36 56 -2 2 -16 -6
-31 -19z"/>
<path d="M8665 2273 c6 -31 16 -58 22 -60 10 -4 5 39 -12 95 -14 45 -21 20
-10 -35z"/>
<path d="M10230 2305 c0 -8 5 -15 10 -15 6 0 10 7 10 15 0 8 -4 15 -10 15 -5
0 -10 -7 -10 -15z"/>
<path d="M7588 2296 c-15 -8 -35 -17 -45 -20 -10 -3 -6 -4 10 -2 15 2 30 0 32
-4 5 -7 28 -5 64 6 11 3 11 7 1 19 -15 19 -28 19 -62 1z"/>
<path d="M6392 2285 c-11 -12 -10 -15 3 -15 8 0 15 7 15 15 0 18 -2 18 -18 0z"/>
<path d="M11592 2280 c0 -14 2 -19 5 -12 2 6 2 18 0 25 -3 6 -5 1 -5 -13z"/>
<path d="M10222 2217 c-12 -7 -20 -16 -17 -19 10 -9 43 3 49 18 7 17 -2 17
-32 1z"/>
<path d="M11390 2170 c0 -5 5 -10 10 -10 6 0 10 5 10 10 0 6 -4 10 -10 10 -5
0 -10 -4 -10 -10z"/>
<path d="M11115 2150 c3 -5 8 -10 11 -10 2 0 4 5 4 10 0 6 -5 10 -11 10 -5 0
-7 -4 -4 -10z"/>
<path d="M10230 2135 c0 -8 7 -15 15 -15 9 0 12 6 9 15 -4 8 -10 15 -15 15 -5
0 -9 -7 -9 -15z"/>
<path d="M11600 2139 c0 -5 5 -7 10 -4 6 3 10 8 10 11 0 2 -4 4 -10 4 -5 0
-10 -5 -10 -11z"/>
<path d="M11090 2132 c0 -5 7 -13 16 -16 10 -4 14 -1 12 6 -5 15 -28 23 -28
10z"/>
<path d="M6210 2120 c0 -5 5 -10 10 -10 6 0 10 5 10 10 0 6 -4 10 -10 10 -5 0
-10 -4 -10 -10z"/>
<path d="M6240 2119 c0 -5 5 -7 10 -4 6 3 10 8 10 11 0 2 -4 4 -10 4 -5 0 -10
-5 -10 -11z"/>
<path d="M8811 2090 c1 -8 5 -26 9 -40 l8 -25 1 25 c0 14 -4 32 -9 40 -9 13
-10 13 -9 0z"/>
<path d="M11600 2085 c0 -8 7 -15 15 -15 9 0 12 6 9 15 -4 8 -10 15 -15 15 -5
0 -9 -7 -9 -15z"/>
<path d="M10225 2070 c-3 -5 -1 -10 4 -10 22 0 10 -19 -18 -31 -31 -14 -60
-54 -48 -66 4 -3 7 1 7 11 0 13 5 16 21 11 13 -5 19 -3 15 3 -6 10 21 26 40
23 24 -3 34 24 18 47 -16 24 -29 28 -39 12z"/>
<path d="M11104 2038 c-15 -23 -10 -57 8 -61 10 -3 18 -1 18 3 0 5 16 14 35
21 47 17 44 29 -5 26 -22 -1 -40 -6 -40 -10 0 -5 -5 -5 -10 -2 -8 5 -7 11 1
21 6 8 9 14 6 14 -3 0 -9 -5 -13 -12z"/>
<path d="M9905 2030 c-19 -8 -19 -9 3 -9 12 -1 22 4 22 9 0 6 -1 10 -2 9 -2 0
-12 -4 -23 -9z"/>
<path d="M9955 1990 c27 -12 43 -12 25 0 -8 5 -22 9 -30 9 -10 0 -8 -3 5 -9z"/>
<path d="M10232 1995 c4 -4 3 -14 -3 -22 -7 -8 -8 -13 -1 -13 15 0 23 28 9 36
-7 4 -9 4 -5 -1z"/>
<path d="M10286 1975 c-3 -8 -12 -15 -20 -15 -8 0 -31 -16 -50 -35 -20 -19
-41 -35 -47 -35 -5 0 -8 -4 -5 -9 3 -4 16 -7 28 -6 13 1 15 0 6 -2 -18 -4 -36
-49 -24 -60 3 -4 13 2 20 13 8 10 18 16 22 12 9 -9 -14 -38 -31 -38 -7 0 -20
-12 -30 -26 -14 -21 -19 -23 -32 -12 -18 14 -64 12 -74 -4 -4 -6 -16 -9 -26
-6 -22 6 -50 -26 -33 -37 6 -3 10 -1 10 4 0 6 19 11 43 11 32 0 39 3 27 11
-11 8 -3 9 32 6 27 -2 52 0 59 7 9 8 10 8 5 -1 -4 -7 -2 -13 5 -13 8 0 8 -4
-1 -15 -10 -13 -9 -15 9 -15 11 0 21 5 21 10 0 6 9 10 20 10 12 0 32 12 46 27
23 24 25 25 42 10 23 -21 32 -21 32 -2 0 8 -12 22 -26 32 -26 16 -26 19 -22
105 2 48 3 88 2 88 -1 0 -4 -7 -8 -15z m-49 -197 c-3 -8 -6 -5 -6 6 -1 11 2
17 5 13 3 -3 4 -12 1 -19z"/>
<path d="M9885 1970 c-3 -5 3 -10 14 -10 11 0 23 5 26 10 3 6 -3 10 -14 10
-11 0 -23 -4 -26 -10z"/>
<path d="M10018 1953 c7 -3 16 -2 19 1 4 3 -2 6 -13 5 -11 0 -14 -3 -6 -6z"/>
<path d="M9695 1939 c-11 -17 1 -21 15 -4 8 9 8 15 2 15 -6 0 -14 -5 -17 -11z"/>
<path d="M10118 1933 c7 -3 16 -2 19 1 4 3 -2 6 -13 5 -11 0 -14 -3 -6 -6z"/>
<path d="M10080 1919 c0 -5 5 -7 10 -4 6 3 10 8 10 11 0 2 -4 4 -10 4 -5 0
-10 -5 -10 -11z"/>
<path d="M9735 1910 c3 -5 8 -10 11 -10 2 0 4 5 4 10 0 6 -5 10 -11 10 -5 0
-7 -4 -4 -10z"/>
<path d="M9996 1905 c-19 -20 -20 -27 -4 -43 17 -17 25 -15 31 8 3 11 12 20
21 20 9 0 16 5 16 10 0 6 -4 10 -9 10 -5 0 -16 3 -24 6 -8 3 -22 -2 -31 -11z"/>
<path d="M8200 1900 c0 -12 8 -12 35 0 18 8 17 9 -7 9 -16 1 -28 -3 -28 -9z"/>
<path d="M8265 1839 c-4 -6 -13 -8 -19 -6 -7 3 -18 2 -25 -2 -9 -6 -8 -11 4
-21 10 -8 15 -9 15 -1 0 6 3 10 8 9 15 -4 52 14 47 23 -8 12 -22 11 -30 -2z"/>
<path d="M9728 1833 c7 -3 16 -2 19 1 4 3 -2 6 -13 5 -11 0 -14 -3 -6 -6z"/>
<path d="M6230 1812 c0 -7 8 -12 17 -10 24 4 27 24 3 24 -11 0 -20 -6 -20 -14z"/>
<path d="M10050 1799 c0 -5 5 -7 10 -4 6 3 10 8 10 11 0 2 -4 4 -10 4 -5 0
-10 -5 -10 -11z"/>
<path d="M11200 1801 c0 -5 9 -7 20 -4 11 3 20 7 20 9 0 2 -9 4 -20 4 -11 0
-20 -4 -20 -9z"/>
<path d="M6668 1793 c7 -3 16 -2 19 1 4 3 -2 6 -13 5 -11 0 -14 -3 -6 -6z"/>
<path d="M9752 1770 c-18 -8 -21 -13 -13 -28 5 -10 18 -18 29 -19 15 -1 21 6
24 28 5 31 -2 34 -40 19z"/>
<path d="M10278 1737 c-21 -5 -38 -13 -38 -18 0 -5 -5 -9 -11 -9 -7 0 -18 -8
-25 -17 -12 -17 -15 -16 -43 11 -17 17 -32 26 -32 20 -3 -20 4 -50 13 -61 5
-7 6 -18 2 -24 -5 -9 -11 -7 -20 6 -9 12 -20 16 -38 11 -15 -4 -26 -2 -26 4 0
5 11 12 25 16 14 3 25 10 25 15 0 17 -30 22 -47 8 -9 -8 -28 -19 -42 -26 -26
-11 -26 -12 -4 -18 12 -4 24 -13 27 -21 3 -8 12 -14 21 -14 8 0 15 -7 15 -15
0 -8 -8 -15 -19 -15 -10 0 -24 7 -31 15 -7 8 -10 15 -7 15 3 0 -5 11 -19 25
-14 14 -27 25 -30 25 -9 0 7 -82 20 -102 8 -13 8 -23 -2 -38 -10 -17 -10 -20
3 -20 28 0 15 -16 -31 -38 -35 -18 -44 -26 -39 -41 4 -13 -2 -23 -19 -35 -32
-20 -35 -20 -29 3 3 11 -2 21 -12 25 -9 3 -13 11 -9 17 4 7 0 18 -10 24 -13
10 -14 18 -6 39 6 17 6 26 0 26 -6 0 -10 -6 -10 -14 0 -8 -6 -16 -14 -19 -9
-4 -12 -16 -9 -34 4 -24 2 -25 -7 -10 -13 20 -32 23 -29 5 3 -29 -2 -38 -23
-38 -22 -1 -22 -1 -5 -14 14 -11 15 -15 5 -19 -10 -4 -9 -6 2 -7 8 0 24 -8 35
-16 20 -16 19 -16 -4 -9 -15 4 -21 3 -17 -3 3 -5 -4 -13 -17 -17 l-22 -8 23
-4 c25 -5 26 -7 12 -34 -11 -19 3 -28 15 -9 3 5 12 7 20 3 8 -3 15 0 15 6 0 6
5 11 10 11 24 0 7 -28 -30 -49 -22 -12 -40 -26 -40 -31 0 -15 37 -30 56 -23
12 4 15 3 10 -5 -4 -7 -18 -12 -31 -12 -24 0 -39 -24 -33 -51 2 -8 -4 -14 -12
-13 -9 1 -16 -7 -16 -17 0 -14 5 -17 20 -13 16 5 18 3 12 -21 -4 -16 -3 -24 3
-21 5 3 11 -1 14 -9 4 -10 1 -12 -10 -8 -13 5 -15 2 -10 -11 4 -10 7 -22 7
-27 0 -4 7 -6 15 -3 8 4 15 1 15 -6 0 -8 -8 -10 -21 -7 -13 3 -28 -2 -40 -14
-10 -10 -26 -19 -34 -19 -8 0 -15 -7 -15 -15 0 -18 -12 -19 -27 -4 -7 7 -12 5
-17 -6 -4 -12 -2 -16 8 -12 13 5 36 -10 36 -24 0 -3 -11 -4 -25 -1 -27 5 -33
-9 -12 -25 6 -6 27 -13 46 -17 32 -6 33 -5 26 21 -3 15 -14 32 -23 39 -14 11
-11 13 23 19 22 4 48 9 58 12 14 3 17 -2 17 -31 0 -24 -5 -36 -14 -36 -9 0
-12 7 -9 20 4 14 0 20 -11 20 -18 0 -22 -25 -6 -35 6 -3 10 -17 10 -31 0 -28
0 -28 47 -9 42 18 49 15 32 -13 -14 -22 -38 -32 -80 -32 -15 0 -32 -7 -40 -16
-7 -8 -20 -13 -30 -11 -22 6 -20 -23 7 -81 18 -40 34 -54 34 -31 0 6 8 8 19 4
11 -3 22 -1 26 5 3 5 16 9 28 9 17 -1 18 -2 5 -6 -10 -2 -18 -9 -18 -14 0 -5
-9 -9 -19 -9 -11 0 -23 -5 -26 -10 -4 -6 -13 -7 -23 -1 -19 10 -134 0 -198
-18 -108 -29 -393 -145 -579 -236 -420 -204 -461 -222 -567 -250 -30 -7 -87
-30 -126 -49 -38 -20 -75 -36 -80 -36 -5 0 -23 -7 -38 -15 -26 -13 97 -15
1155 -13 937 2 1185 6 1189 16 2 6 10 12 17 12 7 0 15 13 17 29 3 23 -1 32
-16 40 -21 9 -21 10 -1 11 31 1 57 24 43 38 -17 17 -28 15 -22 -3 7 -17 -31
-22 -41 -5 -7 11 38 60 55 60 14 0 3 42 -14 52 -17 12 -24 9 -29 -9 -3 -10 -5
1 -6 25 -1 27 3 42 11 42 9 0 9 3 0 12 -8 8 -5 15 16 26 15 8 37 20 50 27 17
9 19 14 9 18 -8 3 -18 2 -23 -2 -27 -23 -61 -28 -85 -14 l-24 14 28 -4 c20 -3
25 -1 17 8 -7 8 -2 15 17 24 23 11 25 14 11 22 -15 9 -63 -1 -100 -22 -12 -6
-18 -6 -18 1 0 6 11 16 25 22 14 6 25 14 25 18 0 4 14 10 30 14 27 5 44 26 21
26 -5 0 -8 16 -7 36 2 19 -2 41 -9 47 -19 19 -27 77 -11 77 8 0 17 7 20 16 3
8 2 13 -3 10 -5 -3 -11 3 -14 14 -3 12 0 20 8 20 22 0 34 24 19 38 -12 11 -14
10 -14 -4 0 -10 -3 -14 -7 -10 -5 4 -8 13 -8 19 0 6 -11 14 -25 18 -24 6 -24
7 -5 15 22 9 45 29 45 40 0 3 -7 1 -15 -6 -8 -7 -22 -9 -31 -6 -16 6 -16 8 1
20 10 7 15 18 11 24 -5 8 3 12 25 12 26 0 29 2 20 14 -9 11 -9 15 1 19 7 2 0
2 -16 -1 -35 -5 -32 19 5 29 13 4 17 8 9 8 -8 1 -1 8 15 16 24 12 25 13 5 8
-14 -4 -35 -7 -47 -6 -13 0 -23 -3 -23 -8 0 -14 -26 -11 -39 4 -8 10 -4 19 19
35 16 12 36 22 44 22 8 0 17 4 20 9 3 4 -13 5 -37 0 -23 -4 -43 -6 -45 -5 -1
2 9 15 23 30 29 31 30 36 10 36 -7 0 -19 -8 -24 -17 -9 -16 -10 -16 -11 5 0
12 6 22 13 22 28 0 16 96 -13 105 -22 7 -27 44 -8 63 9 9 9 17 -2 36 -7 14
-10 32 -7 40 4 9 -2 32 -13 51 l-19 35 24 24 c33 33 32 51 0 30 -14 -9 -29
-13 -33 -9 -4 4 -1 10 6 12 6 3 12 12 12 20 0 9 8 22 17 29 24 17 7 31 -18 15
-30 -18 -36 -5 -11 22 20 21 21 25 6 45 -9 13 -13 29 -10 37 3 10 0 12 -11 8
-13 -5 -14 -3 -4 15 7 12 15 22 19 22 4 0 8 9 8 19 0 24 -28 30 -78 18z m33
-29 c0 -10 2 -10 6 0 2 6 10 12 16 12 6 0 0 -11 -13 -25 -13 -14 -28 -25 -34
-25 -6 0 -3 6 6 14 13 10 15 15 6 24 -9 9 -9 12 0 12 7 0 12 -6 13 -12z m-41
-8 c0 -5 -8 -10 -17 -10 -15 0 -16 -2 -3 -10 17 -11 10 -13 -14 -4 -12 5 -13
9 -3 20 14 16 37 18 37 4z m-71 -45 c-8 -7 -13 -6 -16 3 -3 6 -11 12 -19 12
-8 0 -14 4 -14 9 0 5 13 4 30 -2 21 -8 27 -14 19 -22z m-67 -66 c-12 -5 -22
-17 -22 -26 0 -10 -8 -25 -18 -33 -18 -16 -72 -26 -72 -14 0 9 53 54 63 54 4
0 17 9 29 20 12 10 26 16 31 13 6 -3 1 -10 -11 -14z m-101 -14 c-1 -15 -24
-12 -29 3 -3 9 2 13 12 10 10 -1 17 -7 17 -13z m209 0 c0 -9 -9 -15 -22 -15
-21 0 -21 0 -2 15 24 18 24 18 24 0z m-63 -67 c39 7 21 -14 -37 -43 -60 -30
-63 -31 -55 -4 5 15 4 19 -4 15 -6 -4 -11 -16 -11 -27 0 -10 -4 -19 -10 -19
-15 0 -12 19 8 45 13 17 23 20 34 14 11 -6 19 -5 23 1 3 5 0 10 -7 11 -7 0 -4
4 7 8 11 5 21 5 23 1 1 -4 14 -5 29 -2z m-18 -151 c0 -9 -2 -9 -6 0 -3 9 -10
10 -24 3 -14 -8 -19 -7 -19 3 0 8 3 17 6 20 10 9 44 -12 43 -26z m-232 3 c-3
-10 0 -21 7 -23 13 -5 -22 -36 -41 -37 -19 0 -16 20 3 27 14 5 13 8 -7 20
l-24 14 27 -6 c22 -4 26 -2 22 10 -4 8 -1 15 6 15 7 0 10 -8 7 -20z m443 0 c0
-5 -5 -10 -11 -10 -5 0 -7 5 -4 10 3 6 8 10 11 10 2 0 4 -4 4 -10z m-277 -16
c1 -4 -8 -9 -20 -10 -27 -4 -31 13 -5 18 19 5 23 3 25 -8z m-59 -10 c7 -18 0
-34 -15 -34 -5 0 -9 11 -9 25 0 28 15 34 24 9z m136 -29 c-7 -8 -17 -15 -22
-15 -6 0 -5 7 2 15 7 8 17 15 22 15 6 0 5 -7 -2 -15z m-190 -5 c0 -5 -4 -10
-10 -10 -5 0 -10 5 -10 10 0 6 5 10 10 10 6 0 10 -4 10 -10z m150 -19 c0 -5
-7 -11 -15 -15 -9 -3 -15 0 -15 9 0 8 7 15 15 15 8 0 15 -4 15 -9z m24 -53
c-3 -13 -7 -23 -8 -23 0 0 -15 -5 -33 -12 -25 -9 -33 -8 -37 3 -3 9 2 14 14
14 11 0 28 9 37 20 23 27 36 25 27 -2z m-94 -8 c0 -5 -8 -10 -17 -10 -14 0
-15 -2 -5 -9 10 -6 7 -10 -12 -13 -14 -3 -23 -1 -20 3 3 5 0 9 -5 9 -6 0 -11
5 -11 11 0 5 4 8 8 5 4 -2 14 -1 22 5 20 12 40 11 40 -1z m-80 -30 c0 -5 -9
-10 -21 -10 -11 0 -17 5 -14 10 3 6 13 10 21 10 8 0 14 -4 14 -10z m65 -20
c-3 -5 -11 -10 -16 -10 -6 0 -7 5 -4 10 3 6 11 10 16 10 6 0 7 -4 4 -10z m95
6 c0 -3 -4 -8 -10 -11 -5 -3 -10 -1 -10 4 0 6 5 11 10 11 6 0 10 -2 10 -4z
m-133 -48 c-3 -8 -6 -5 -6 6 -1 11 2 17 5 13 3 -3 4 -12 1 -19z m125 0 c-7 -7
-12 -8 -12 -2 0 14 12 26 19 19 2 -3 -1 -11 -7 -17z m-117 -78 c-3 -5 -11 -10
-16 -10 -6 0 -17 -7 -25 -15 -9 -8 -21 -15 -27 -14 -7 0 -7 3 2 6 11 4 11 7 0
13 -9 6 -2 12 22 18 46 14 51 14 44 2z m114 -21 c-22 -14 -33 -10 -19 6 7 8
17 12 22 9 6 -4 5 -10 -3 -15z m-74 -29 c-3 -5 -10 -10 -16 -10 -5 0 -9 5 -9
10 0 6 7 10 16 10 8 0 12 -4 9 -10z m-45 -27 c0 -8 -4 -11 -10 -8 -5 3 -10 2
-10 -3 0 -11 -41 -24 -49 -16 -3 2 5 11 17 20 12 8 20 19 17 24 -3 4 4 6 15 3
11 -3 20 -12 20 -20z m40 -83 c0 -5 -4 -10 -10 -10 -5 0 -10 5 -10 10 0 6 5
10 10 10 6 0 10 -4 10 -10z m-225 -30 c3 -5 1 -10 -4 -10 -6 0 -11 5 -11 10 0
6 2 10 4 10 3 0 8 -4 11 -10z m-35 -20 c0 -5 -4 -10 -10 -10 -5 0 -10 5 -10
10 0 6 5 10 10 10 6 0 10 -4 10 -10z m230 6 c0 -3 -4 -8 -10 -11 -5 -3 -10 -1
-10 4 0 6 5 11 10 11 6 0 10 -2 10 -4z m65 -20 c13 5 16 4 11 -4 -4 -7 -16
-12 -26 -12 -11 0 -24 -9 -30 -20 -12 -22 -30 -27 -30 -9 0 17 44 56 51 46 3
-4 14 -5 24 -1z m-235 -39 c0 -2 -9 -14 -20 -27 -20 -23 -20 -23 -20 -2 0 11
8 23 18 25 9 3 18 5 20 6 1 0 2 -1 2 -2z m260 -7 c0 -5 -5 -10 -11 -10 -5 0
-7 5 -4 10 3 6 8 10 11 10 2 0 4 -4 4 -10z m-341 -36 c-6 -8 -18 -14 -27 -14
-13 0 -12 3 4 19 21 21 41 17 23 -5z m293 4 c-6 -6 -16 -7 -22 -3 -9 6 -9 9 1
16 17 10 34 0 21 -13z m47 -14 c-6 -8 -21 -14 -33 -14 -12 0 -27 -5 -33 -11
-8 -8 -13 -8 -17 0 -4 6 5 15 21 21 15 5 35 14 43 19 21 12 33 2 19 -15z m-99
-4 c-8 -5 -19 -10 -25 -10 -5 0 -3 5 5 10 8 5 20 10 25 10 6 0 3 -5 -5 -10z
m-20 -30 c0 -5 -4 -10 -10 -10 -5 0 -10 5 -10 10 0 6 5 10 10 10 6 0 10 -4 10
-10z m-255 -20 c3 -5 1 -10 -4 -10 -6 0 -11 5 -11 10 0 6 2 10 4 10 3 0 8 -4
11 -10z m315 -20 c0 -5 -4 -10 -10 -10 -5 0 -10 5 -10 10 0 6 5 10 10 10 6 0
10 -4 10 -10z m80 -50 c0 -5 -4 -10 -10 -10 -5 0 -10 5 -10 10 0 6 5 10 10 10
6 0 10 -4 10 -10z m-265 -20 c-3 -5 -11 -10 -16 -10 -6 0 -7 5 -4 10 3 6 11
10 16 10 6 0 7 -4 4 -10z m235 0 c0 -5 -4 -10 -10 -10 -5 0 -10 5 -10 10 0 6
5 10 10 10 6 0 10 -4 10 -10z m95 0 c-3 -5 -13 -10 -21 -10 -8 0 -12 5 -9 10
3 6 13 10 21 10 8 0 12 -4 9 -10z m-54 -25 c8 18 9 18 6 1 -2 -20 -57 -34 -57
-15 0 6 5 7 10 4 6 -3 13 2 17 12 7 17 8 17 12 -2 l4 -20 8 20z m-61 -25 c0
-5 -7 -10 -15 -10 -8 0 -15 5 -15 10 0 6 7 10 15 10 8 0 15 -4 15 -10z m66
-77 c-4 -28 -76 -59 -76 -33 0 6 6 10 13 10 6 0 23 9 37 20 31 24 29 24 26 3z
m324 -198 c0 -8 -9 -15 -19 -15 -11 0 -22 -6 -24 -12 -3 -8 -6 -6 -6 5 -1 9 6
17 14 17 8 0 15 5 15 10 0 6 5 10 10 10 6 0 10 -7 10 -15z m30 -189 c0 -3 -4
-8 -10 -11 -5 -3 -10 -1 -10 4 0 6 5 11 10 11 6 0 10 -2 10 -4z"/>
<path d="M9760 1675 c-10 -12 -10 -15 3 -15 19 0 31 16 18 24 -5 3 -14 -1 -21
-9z"/>
<path d="M8458 1673 c6 -2 18 -2 25 0 6 3 1 5 -13 5 -14 0 -19 -2 -12 -5z"/>
<path d="M6815 1640 c-4 -6 -3 -16 3 -22 6 -6 12 -6 17 2 4 6 3 16 -3 22 -6 6
-12 6 -17 -2z"/>
<path d="M9773 1630 c-32 -19 -47 -47 -20 -37 16 6 57 -10 57 -23 0 -5 -7 -10
-15 -10 -8 0 -15 -8 -15 -17 0 -9 -8 -25 -17 -36 -10 -11 -13 -18 -8 -16 49
23 65 34 65 44 0 7 10 16 22 22 21 9 21 10 -10 24 -38 16 -40 32 -10 53 21 15
21 16 3 16 -11 0 -35 -9 -52 -20z"/>
<path d="M10368 1643 c7 -3 16 -2 19 1 4 3 -2 6 -13 5 -11 0 -14 -3 -6 -6z"/>
<path d="M11340 1590 c0 -5 5 -10 10 -10 6 0 10 5 10 10 0 6 -4 10 -10 10 -5
0 -10 -4 -10 -10z"/>
<path d="M11320 1550 c-12 -8 -9 -10 12 -10 15 0 30 5 33 10 8 13 -25 13 -45
0z"/>
<path d="M6370 1540 c0 -5 5 -10 11 -10 5 0 7 5 4 10 -3 6 -8 10 -11 10 -2 0
-4 -4 -4 -10z"/>
<path d="M6798 1513 c6 -2 18 -2 25 0 6 3 1 5 -13 5 -14 0 -19 -2 -12 -5z"/>
<path d="M11430 1481 c0 -5 9 -7 20 -4 11 3 20 7 20 9 0 2 -9 4 -20 4 -11 0
-20 -4 -20 -9z"/>
<path d="M11390 1464 c0 -8 5 -12 10 -9 6 3 10 10 10 16 0 5 -4 9 -10 9 -5 0
-10 -7 -10 -16z"/>
<path d="M6415 1450 c3 -5 10 -10 16 -10 5 0 9 5 9 10 0 6 -7 10 -16 10 -8 0
-12 -4 -9 -10z"/>
<path d="M10385 1423 c3 -8 5 -18 5 -21 0 -8 20 20 20 29 0 3 -7 6 -15 6 -10
0 -14 -6 -10 -14z"/>
<path d="M6880 1389 c0 -5 5 -7 10 -4 6 3 10 8 10 11 0 2 -4 4 -10 4 -5 0 -10
-5 -10 -11z"/>
<path d="M7360 1281 c0 -5 -8 -12 -17 -14 -10 -2 -8 -3 5 -2 13 1 22 -3 22
-11 0 -8 7 -14 15 -14 19 0 19 17 1 36 -17 16 -26 18 -26 5z"/>
<path d="M9214 1268 c-5 -7 -2 -9 9 -5 11 4 22 -4 36 -26 18 -27 21 -29 21
-11 0 37 -50 69 -66 42z"/>
<path d="M7350 1231 c0 -6 4 -13 10 -16 6 -3 7 1 4 9 -7 18 -14 21 -14 7z"/>
<path d="M9648 1223 c7 -3 16 -2 19 1 4 3 -2 6 -13 5 -11 0 -14 -3 -6 -6z"/>
<path d="M7520 1200 c-6 -12 -9 -24 -6 -28 9 -9 57 20 53 32 -7 20 -36 17 -47
-4z"/>
<path d="M9550 1190 c-12 -8 -11 -10 8 -10 12 0 22 5 22 10 0 13 -11 13 -30 0z"/>
<path d="M6930 1170 c0 -5 7 -10 15 -10 8 0 15 5 15 10 0 6 -7 10 -15 10 -8 0
-15 -4 -15 -10z"/>
<path d="M7559 1153 c-9 -2 -21 -15 -27 -28 -9 -19 -8 -23 3 -19 7 3 16 12 19
20 3 8 15 14 26 14 11 0 20 5 20 10 0 10 -12 11 -41 3z"/>
<path d="M6874 1138 c-4 -6 -3 -8 4 -4 6 3 15 -2 21 -11 5 -10 13 -15 16 -11
4 4 0 14 -8 23 -19 18 -24 19 -33 3z"/>
<path d="M10448 1103 c7 -3 16 -2 19 1 4 3 -2 6 -13 5 -11 0 -14 -3 -6 -6z"/>
<path d="M7180 1075 c0 -8 7 -15 15 -15 8 0 15 7 15 15 0 8 -7 15 -15 15 -8 0
-15 -7 -15 -15z"/>
<path d="M7530 1080 c0 -5 5 -10 10 -10 6 0 10 -6 10 -14 0 -8 7 -16 15 -20
20 -7 19 7 -4 32 -20 24 -31 28 -31 12z"/>
<path d="M7604 1076 c-10 -8 -16 -17 -13 -20 3 -3 14 1 25 8 10 8 16 17 13 20
-3 3 -14 -1 -25 -8z"/>
<path d="M9643 1068 c-44 -21 -58 -40 -24 -31 16 4 19 1 15 -19 -5 -21 -4 -22
9 -5 8 9 20 17 28 18 8 0 5 4 -6 9 -21 8 -21 9 31 25 8 3 12 9 9 15 -8 13 -13
12 -62 -12z"/>
<path d="M7645 980 c-4 -6 3 -10 14 -10 25 0 27 6 6 13 -8 4 -17 2 -20 -3z"/>
<path d="M7040 960 c0 -5 -6 -10 -14 -10 -7 0 -19 -7 -26 -15 -11 -13 -9 -15
17 -13 24 2 31 7 31 25 0 13 -2 23 -4 23 -2 0 -4 -4 -4 -10z"/>
<path d="M7575 940 c3 -5 8 -10 11 -10 2 0 4 5 4 10 0 6 -5 10 -11 10 -5 0 -7
-4 -4 -10z"/>
<path d="M11535 910 c-3 -5 -1 -10 4 -10 6 0 11 5 11 10 0 6 -2 10 -4 10 -3 0
-8 -4 -11 -10z"/>
<path d="M6530 890 c0 -5 5 -10 10 -10 6 0 10 5 10 10 0 6 -4 10 -10 10 -5 0
-10 -4 -10 -10z"/>
<path d="M11725 850 c-19 -8 -19 -9 2 -9 12 -1 25 4 28 9 7 12 -2 12 -30 0z"/>
<path d="M11652 830 c-41 -10 -46 -14 -30 -28 15 -12 78 10 78 28 0 11 -1 11
-48 0z"/>
<path d="M9681 794 c0 -11 3 -14 6 -6 3 7 2 16 -1 19 -3 4 -6 -2 -5 -13z"/>
<path d="M10505 790 c-3 -5 -1 -10 4 -10 6 0 11 5 11 10 0 6 -2 10 -4 10 -3 0
-8 -4 -11 -10z"/>
<path d="M7071 751 c-8 -6 -9 -11 -3 -15 6 -3 14 -1 17 5 9 14 2 20 -14 10z"/>
<path d="M11677 673 c-4 -3 -7 -13 -7 -21 0 -12 3 -12 15 -2 8 7 15 16 15 21
0 11 -14 12 -23 2z"/>
<path d="M10488 623 c7 -3 16 -2 19 1 4 3 -2 6 -13 5 -11 0 -14 -3 -6 -6z"/>
<path d="M10506 523 c-11 -11 -6 -23 9 -23 8 0 15 4 15 9 0 13 -16 22 -24 14z"/>
<path d="M11300 509 c0 -5 5 -7 10 -4 6 3 10 8 10 11 0 2 -4 4 -10 4 -5 0 -10
-5 -10 -11z"/>
<path d="M10528 473 c7 -3 16 -2 19 1 4 3 -2 6 -13 5 -11 0 -14 -3 -6 -6z"/>
<path d="M7868 463 c7 -3 16 -2 19 1 4 3 -2 6 -13 5 -11 0 -14 -3 -6 -6z"/>
<path d="M6725 413 c-32 -8 -48 -24 -35 -37 7 -7 18 -2 37 17 15 15 25 26 23
26 -3 -1 -14 -4 -25 -6z"/>
<path d="M10657 343 c-11 -10 -8 -43 3 -43 6 0 10 11 10 25 0 26 -2 29 -13 18z"/>
<path d="M10510 330 c0 -5 9 -10 21 -10 11 0 17 5 14 10 -3 6 -13 10 -21 10
-8 0 -14 -4 -14 -10z"/>
<path d="M10620 330 c-13 -8 -12 -10 3 -10 9 0 17 5 17 10 0 12 -1 12 -20 0z"/>
<path d="M7200 299 c0 -5 5 -7 10 -4 6 3 10 8 10 11 0 2 -4 4 -10 4 -5 0 -10
-5 -10 -11z"/>
<path d="M10540 261 c0 -16 6 -31 14 -34 10 -4 13 -1 10 7 -3 8 4 16 18 20
l23 6 -25 15 c-35 20 -40 19 -40 -14z"/>
<path d="M7933 178 c-13 -6 -23 -14 -23 -18 0 -4 -19 -12 -42 -19 -71 -21
-108 -43 -108 -63 0 -21 32 -38 38 -20 2 7 13 10 29 6 20 -5 24 -3 21 12 -2
12 4 20 17 22 11 2 24 10 28 18 4 8 17 14 27 14 14 0 18 5 13 16 -5 14 -1 15
28 9 l34 -7 -19 21 c-11 11 -20 21 -20 20 -1 0 -11 -5 -23 -11z"/>
<path d="M10560 170 c0 -5 9 -14 19 -19 14 -8 20 -7 24 3 3 8 3 17 0 20 -10
10 -43 7 -43 -4z"/>
<path d="M7676 65 c3 -15 0 -33 -6 -40 -8 -9 -6 -14 5 -19 8 -3 15 -1 15 5 0
5 11 14 25 19 28 11 34 30 8 30 -9 0 -24 7 -34 16 -17 15 -18 15 -13 -11z"/>
<path d="M10557 83 c-4 -3 -7 -11 -7 -17 0 -6 5 -5 12 2 6 6 9 14 7 17 -3 3
-9 2 -12 -2z"/>
<path d="M10642 48 c-7 -7 -12 -21 -11 -33 0 -18 1 -18 8 -2 4 10 11 18 16 17
6 0 11 6 13 14 4 19 -9 21 -26 4z"/>
<path d="M6984 30 c-29 -12 -40 -30 -17 -30 19 1 53 22 53 34 0 8 -10 7 -36
-4z"/>
<path d="M10590 15 c0 -8 5 -15 10 -15 6 0 10 7 10 15 0 8 -4 15 -10 15 -5 0
-10 -7 -10 -15z"/>
<path d="M6880 10 c0 -5 5 -10 11 -10 5 0 7 5 4 10 -3 6 -8 10 -11 10 -2 0 -4
-4 -4 -10z"/>
<path d="M10545 10 c-3 -5 1 -10 9 -10 9 0 16 5 16 10 0 6 -4 10 -9 10 -6 0
-13 -4 -16 -10z"/>
<path d="M7618 3 c7 -3 16 -2 19 1 4 3 -2 6 -13 5 -11 0 -14 -3 -6 -6z"/>
</g>
</svg>
