<svg width="42" height="44" viewBox="0 0 42 44" fill="none" xmlns="http://www.w3.org/2000/svg">
<g filter="url(#filter0_d_9_33)">
<path d="M21 35.3334C11.7994 35.3233 4.34343 27.8673 4.33333 18.6667V18.3334C4.51655 9.17425 12.0576 1.87996 21.2178 2.0015C30.3779 2.12304 37.7228 9.61484 37.663 18.7756C37.6031 27.9363 30.1609 35.3315 21 35.3334ZM21 5.33336C13.6362 5.33336 7.66666 11.3029 7.66666 18.6667C7.66666 26.0305 13.6362 32 21 32C28.3638 32 34.3333 26.0305 34.3333 18.6667C34.3251 11.3063 28.3604 5.34163 21 5.33336ZM21 27L18.65 24.65L22.95 20.3334H12.6667V17H22.95L18.65 12.6834L21 10.3334L29.3333 18.6667L21 27Z" fill="#B3AD08"/>
</g>
<defs>
<filter id="filter0_d_9_33" x="-4" y="0" width="48" height="48" filterUnits="userSpaceOnUse" color-interpolation-filters="sRGB">
<feFlood flood-opacity="0" result="BackgroundImageFix"/>
<feColorMatrix in="SourceAlpha" type="matrix" values="0 0 0 0 0 0 0 0 0 0 0 0 0 0 0 0 0 0 127 0" result="hardAlpha"/>
<feOffset dy="4"/>
<feGaussianBlur stdDeviation="2"/>
<feComposite in2="hardAlpha" operator="out"/>
<feColorMatrix type="matrix" values="0 0 0 0 0 0 0 0 0 0 0 0 0 0 0 0 0 0 0.25 0"/>
<feBlend mode="normal" in2="BackgroundImageFix" result="effect1_dropShadow_9_33"/>
<feBlend mode="normal" in="SourceGraphic" in2="effect1_dropShadow_9_33" result="shape"/>
</filter>
</defs>
</svg>
