<svg width="20" height="20" viewBox="0 0 20 20" fill="none" xmlns="http://www.w3.org/2000/svg">
<path d="M10.9572 14.012H10.9372C10.8752 14.012 4.67218 14 3.10718 13.575C2.2466 13.3432 1.57453 12.6707 1.34318 11.81C1.06175 10.2224 0.925857 8.61235 0.937176 7C0.929905 5.38501 1.06948 3.77271 1.35418 2.183C1.59188 1.32151 2.261 0.645949 3.12018 0.4C4.64218 0 10.6742 0 10.9302 0H10.9512C11.0142 0 17.2332 0.012 18.7822 0.437C19.6409 0.670009 20.3117 1.3411 20.5442 2.2C20.8346 3.79354 20.9708 5.41134 20.9512 7.031C20.9582 8.64403 20.8183 10.2543 20.5332 11.842C20.2988 12.7016 19.6263 13.3726 18.7662 13.605C17.2462 14.008 11.2132 14.012 10.9572 14.012ZM8.95718 4.005L8.95218 10.005L14.1642 7.005L8.95718 4.005Z" fill="#2E3A59"/>
</svg>
